<?xml version="1.0" encoding="utf-8"?>
<!-- Generator: Adobe Illustrator 27.5.0, SVG Export Plug-In . SVG Version: 6.00 Build 0)  -->
<svg version="1.1" xmlns="http://www.w3.org/2000/svg" xmlns:xlink="http://www.w3.org/1999/xlink" x="0px" y="0px"
	 viewBox="0 0 500 500" style="enable-background:new 0 0 500 500;" xml:space="preserve">
<g id="Background_Complete">
	<g>
		<g>
			<g>
				<g>
					<g>
						<path style="fill:#E0E0E0;" d="M424.438,132.173c0,0,0.571,0.04,1.498,0.469c0.907,0.422,2.192,1.344,2.985,3.022
							c0.386,0.829,0.65,1.833,0.609,2.919c-0.045,1.077-0.333,2.245-1.004,3.272c-0.319,0.521-0.735,1-1.219,1.418
							c-0.478,0.425-1.035,0.783-1.647,1.045c-1.214,0.552-2.654,0.696-4.035,0.398c-1.377-0.321-2.617-1.066-3.48-2.084
							c-0.442-0.498-0.792-1.061-1.044-1.649c-0.259-0.584-0.43-1.195-0.497-1.803c-0.167-1.216,0.07-2.394,0.49-3.388
							c0.427-0.999,1.095-1.794,1.798-2.379c1.434-1.178,2.99-1.462,3.99-1.457C423.905,131.965,424.438,132.173,424.438,132.173
							c-0.007,0.045-0.554-0.11-1.551-0.075c-0.978,0.037-2.472,0.356-3.828,1.512c-0.665,0.574-1.291,1.343-1.686,2.301
							c-0.387,0.953-0.603,2.075-0.435,3.226c0.067,0.575,0.233,1.153,0.482,1.705c0.241,0.556,0.575,1.086,0.995,1.556
							c0.819,0.96,1.99,1.659,3.29,1.963c1.306,0.28,2.662,0.148,3.812-0.37c0.58-0.245,1.108-0.582,1.563-0.982
							c0.461-0.393,0.857-0.844,1.164-1.335c0.644-0.969,0.928-2.076,0.985-3.103c0.052-1.035-0.186-1.997-0.542-2.8
							c-0.732-1.625-1.947-2.551-2.816-3.003C424.987,132.31,424.425,132.216,424.438,132.173z"/>
					</g>
				</g>
			</g>
		</g>
		<g>
			<g>
				<g>
					<g>
						<path style="fill:#E0E0E0;" d="M429.52,125.391c-0.004,0.003-0.009-0.072-0.014-0.222c-0.004-0.166-0.009-0.388-0.016-0.676
							c-0.009-0.619-0.021-1.512-0.037-2.671l0.045,0.056c-1.478-0.322-3.421-0.746-5.771-1.259l0.103-0.05
							c-0.46,0.979-0.971,2.066-1.517,3.229l-0.027,0.058l-0.065,0.003c-1.199,0.051-2.474,0.258-3.762,0.668l-0.069,0.022
							l-0.052-0.051c-0.791-0.783-1.647-1.631-2.537-2.512l0.161,0.018c-1.569,0.999-3.233,2.059-4.981,3.173l0.058-0.169
							c0.373,1.04,0.783,2.187,1.204,3.361l0.031,0.086l-0.062,0.067c-0.805,0.87-1.577,1.934-2.189,3.118l-0.044,0.084l-0.095,0
							c-1.106,0.004-2.326,0.008-3.568,0.013l0.158-0.126c-0.404,1.811-0.839,3.764-1.285,5.765l-0.093-0.19
							c1.004,0.476,2.107,0.998,3.225,1.528l0.094,0.045l0.004,0.105c0.047,1.192,0.256,2.489,0.656,3.747l0.032,0.102l-0.075,0.076
							c-0.789,0.793-1.649,1.658-2.518,2.531l0.024-0.221c1.002,1.579,2.075,3.272,3.163,4.988l-0.213-0.073
							c1.062-0.378,2.209-0.787,3.364-1.198l0.104-0.037l0.081,0.075c0.886,0.822,1.947,1.587,3.105,2.188l0.001,0.001l0.001,0
							c0.044,0.072-0.097-0.161,0.099,0.161l0,0.004v0.007v0.014v0.028l0,0.056l0,0.112l0,0.225l0.001,0.449l0.002,0.895
							c0.001,0.596,0.002,1.189,0.004,1.779l-0.142-0.177c1.948,0.437,3.87,0.869,5.764,1.294l-0.202,0.098
							c0.516-1.085,1.026-2.159,1.532-3.223l0.046-0.098l0.108-0.004c1.286-0.049,2.55-0.272,3.748-0.65l0.102-0.032l0.076,0.075
							c0.855,0.852,1.697,1.692,2.528,2.521l-0.215-0.023c1.704-1.077,3.369-2.13,4.992-3.156l-0.068,0.197
							c-0.405-1.142-0.803-2.263-1.193-3.365l-0.033-0.093l0.067-0.072c0.885-0.953,1.621-2.006,2.198-3.11l0.044-0.085h0.095
							c1.224-0.001,2.41-0.001,3.568-0.002l-0.147,0.118c0.459-2.027,0.892-3.939,1.305-5.761l0.076,0.156
							c-1.133-0.541-2.195-1.049-3.22-1.539l-0.072-0.034l-0.003-0.079c-0.051-1.362-0.287-2.615-0.644-3.763l-0.022-0.07
							l0.051-0.051c0.918-0.916,1.746-1.742,2.527-2.521l-0.015,0.133c-1.216-1.938-2.252-3.59-3.139-5.003l0.096,0.033
							c-1.346,0.47-2.451,0.855-3.371,1.176l-0.034,0.012l-0.026-0.024c-0.948-0.886-1.754-1.424-2.292-1.766
							c-0.264-0.159-0.466-0.281-0.614-0.37C429.58,125.434,429.516,125.393,429.52,125.391c0.004-0.003,0.079,0.031,0.217,0.098
							c0.141,0.072,0.354,0.182,0.63,0.345c0.551,0.326,1.372,0.852,2.34,1.731l-0.059-0.012c0.916-0.333,2.015-0.732,3.355-1.219
							l0.061-0.022l0.035,0.055c0.9,1.406,1.95,3.048,3.183,4.976l0.046,0.072l-0.061,0.061c-0.776,0.785-1.598,1.616-2.51,2.538
							l0.029-0.12c0.37,1.165,0.619,2.438,0.677,3.825l-0.074-0.113c1.027,0.485,2.092,0.987,3.227,1.523l0.1,0.047l-0.024,0.109
							c-0.405,1.823-0.831,3.738-1.282,5.766l-0.026,0.118l-0.121,0c-1.159,0.004-2.345,0.009-3.568,0.014l0.139-0.085
							c-0.586,1.13-1.335,2.209-2.238,3.186l0.034-0.165c0.393,1.101,0.794,2.221,1.201,3.362l0.045,0.126l-0.113,0.072
							c-1.621,1.029-3.284,2.085-4.986,3.166l-0.117,0.074l-0.098-0.098c-0.832-0.828-1.676-1.666-2.532-2.517l0.177,0.043
							c-1.227,0.388-2.522,0.619-3.84,0.67l0.154-0.102c-0.505,1.064-1.014,2.139-1.529,3.225l-0.062,0.13l-0.141-0.031
							c-1.894-0.424-3.816-0.855-5.764-1.291l-0.142-0.032l0-0.145c-0.001-0.59-0.003-1.184-0.004-1.779l-0.002-0.895l-0.001-0.449
							l0-0.225l0-0.112l0-0.056l0-0.028v-0.014v-0.007v-0.004c0.196,0.321,0.054,0.089,0.097,0.161l-0.001,0l-0.002-0.001
							c-1.189-0.617-2.276-1.401-3.184-2.244l0.184,0.038c-1.155,0.411-2.302,0.819-3.364,1.197l-0.136,0.049l-0.077-0.122
							c-1.087-1.717-2.159-3.411-3.159-4.991l-0.076-0.12l0.101-0.101c0.87-0.873,1.731-1.736,2.521-2.528l-0.043,0.177
							c-0.408-1.29-0.62-2.619-0.666-3.84l0.099,0.149c-1.116-0.532-2.218-1.056-3.221-1.534l-0.122-0.058l0.03-0.132
							c0.451-2,0.891-3.952,1.3-5.762l0.029-0.127l0.129,0c1.242-0.001,2.462-0.001,3.568-0.002l-0.139,0.084
							c0.63-1.209,1.422-2.293,2.247-3.178l-0.031,0.152c-0.416-1.176-0.822-2.324-1.191-3.366l-0.038-0.108l0.097-0.061
							c1.753-1.105,3.423-2.158,4.996-3.149l0.088-0.055l0.073,0.073c0.885,0.887,1.737,1.739,2.523,2.526l-0.12-0.029
							c1.311-0.409,2.608-0.61,3.826-0.653l-0.092,0.061c0.556-1.159,1.076-2.242,1.544-3.217l0.032-0.067l0.072,0.016
							c2.344,0.54,4.282,0.987,5.756,1.326l0.046,0.011l0,0.046c-0.011,1.148-0.019,2.033-0.024,2.647
							c-0.005,0.292-0.01,0.517-0.013,0.685C429.528,125.308,429.524,125.388,429.52,125.391z"/>
					</g>
				</g>
			</g>
		</g>
	</g>
	<g>
		<g>
			<g>
				<path style="fill:#E0E0E0;" d="M464.461,413.446c0,0-0.012-0.375-0.017-1.089c-0.004-0.722-0.01-1.777-0.018-3.156
					c-0.009-2.773-0.023-6.839-0.041-12.06c-0.021-10.436-0.051-25.478-0.087-43.944l0.164,0.164
					c-27.939,0.013-64.387,0.03-104.128,0.049h-0.008l0.213-0.213c-0.005,21.323-0.01,41.697-0.015,60.249l-0.198-0.198
					c30.496,0.039,56.503,0.073,74.898,0.096c9.204,0.023,16.502,0.041,21.51,0.054c2.499,0.011,4.423,0.019,5.735,0.024
					c0.647,0.005,1.14,0.009,1.483,0.012C464.284,413.438,464.461,413.446,464.461,413.446s-0.16,0.008-0.487,0.012
					c-0.337,0.003-0.823,0.007-1.46,0.012c-1.303,0.006-3.214,0.014-5.695,0.024c-4.997,0.013-12.28,0.031-21.465,0.054
					c-18.427,0.024-44.48,0.057-75.029,0.096l-0.198,0v-0.198c-0.005-18.552-0.01-38.926-0.015-60.249v-0.213h0.213h0.008
					c39.741,0.019,76.19,0.036,104.128,0.049l0.165,0l0,0.164c-0.037,18.509-0.066,33.585-0.087,44.046
					c-0.018,5.205-0.032,9.259-0.042,12.023c-0.008,1.366-0.014,2.411-0.018,3.126C464.472,413.094,464.461,413.446,464.461,413.446
					z"/>
			</g>
		</g>
		<g>
			<g>
				<path style="fill:#E0E0E0;" d="M464.5,360.492c0,0.118-23.293,0.213-52.019,0.213c-28.736,0-52.024-0.095-52.024-0.213
					c0-0.118,23.288-0.213,52.024-0.213C441.207,360.279,464.5,360.374,464.5,360.492z"/>
			</g>
		</g>
		<g>
			<rect x="369.344" y="370.426" style="fill:#F5F5F5;" width="32.167" height="32.167"/>
		</g>
		<g>
			<g>
				<g>
					<path style="fill:#E0E0E0;" d="M456.909,375.732c0,0.015-0.163,0.029-0.473,0.043c-0.357,0.011-0.806,0.024-1.357,0.04
						c-1.237,0.017-2.927,0.04-4.989,0.068c-4.265,0.016-10.059,0.038-16.46,0.062c-6.404-0.024-12.198-0.046-16.463-0.062
						c-2.063-0.028-3.753-0.051-4.989-0.068c-0.551-0.016-0.999-0.029-1.356-0.04c-0.31-0.014-0.473-0.028-0.473-0.043
						c0-0.015,0.163-0.029,0.473-0.043c0.357-0.011,0.806-0.024,1.356-0.04c1.236-0.017,2.926-0.04,4.989-0.068
						c4.265-0.016,10.059-0.038,16.463-0.063c6.401,0.024,12.195,0.046,16.46,0.063c2.063,0.028,3.753,0.051,4.989,0.068
						c0.551,0.016,1,0.029,1.357,0.04C456.746,375.703,456.909,375.717,456.909,375.732z"/>
				</g>
			</g>
			<g>
				<g>
					<path style="fill:#E0E0E0;" d="M457.945,382.917c0,0.015-0.166,0.029-0.483,0.043c-0.363,0.01-0.823,0.024-1.387,0.04
						c-1.262,0.017-2.99,0.04-5.1,0.068c-4.358,0.016-10.282,0.038-16.827,0.062c-6.547-0.024-12.472-0.046-16.83-0.062
						c-2.11-0.028-3.839-0.051-5.1-0.068c-0.564-0.016-1.023-0.03-1.386-0.04c-0.317-0.014-0.484-0.028-0.484-0.043
						c0-0.015,0.167-0.029,0.484-0.043c0.363-0.01,0.822-0.024,1.386-0.04c1.262-0.017,2.99-0.04,5.1-0.068
						c4.358-0.016,10.282-0.038,16.83-0.062c6.545,0.024,12.469,0.046,16.827,0.062c2.11,0.028,3.839,0.051,5.1,0.068
						c0.564,0.016,1.023,0.03,1.387,0.04C457.778,382.888,457.945,382.903,457.945,382.917z"/>
				</g>
			</g>
			<g>
				<g>
					<path style="fill:#E0E0E0;" d="M457.945,390.103c0,0.015-0.166,0.029-0.483,0.043c-0.363,0.01-0.823,0.024-1.387,0.04
						c-1.262,0.017-2.99,0.04-5.1,0.068c-4.358,0.016-10.282,0.038-16.827,0.062c-6.547-0.024-12.472-0.046-16.83-0.062
						c-2.11-0.028-3.839-0.051-5.1-0.068c-0.564-0.016-1.023-0.03-1.386-0.04c-0.317-0.014-0.484-0.028-0.484-0.043
						s0.167-0.029,0.484-0.043c0.363-0.01,0.822-0.024,1.386-0.04c1.262-0.017,2.99-0.04,5.1-0.068
						c4.358-0.016,10.282-0.038,16.83-0.062c6.545,0.024,12.469,0.046,16.827,0.062c2.11,0.028,3.839,0.051,5.1,0.068
						c0.564,0.016,1.023,0.029,1.387,0.04C457.778,390.074,457.945,390.088,457.945,390.103z"/>
				</g>
			</g>
			<g>
				<g>
					<path style="fill:#E0E0E0;" d="M457.945,397.288c0,0.015-0.166,0.029-0.483,0.043c-0.363,0.01-0.823,0.024-1.387,0.04
						c-1.262,0.017-2.99,0.04-5.1,0.068c-4.358,0.016-10.282,0.038-16.827,0.062c-6.547-0.024-12.472-0.046-16.83-0.062
						c-2.11-0.028-3.839-0.051-5.1-0.068c-0.564-0.016-1.023-0.03-1.386-0.04c-0.317-0.014-0.484-0.028-0.484-0.043
						c0-0.015,0.167-0.029,0.484-0.043c0.363-0.01,0.822-0.024,1.386-0.04c1.262-0.017,2.99-0.04,5.1-0.068
						c4.358-0.016,10.282-0.038,16.83-0.062c6.545,0.024,12.469,0.046,16.827,0.062c2.11,0.028,3.839,0.051,5.1,0.068
						c0.564,0.016,1.023,0.03,1.387,0.04C457.778,397.259,457.945,397.273,457.945,397.288z"/>
				</g>
			</g>
		</g>
	</g>
	<g>
		<g>
			
				<ellipse transform="matrix(0.7071 -0.7071 0.7071 0.7071 -11.8855 140.2366)" style="fill:#F5F5F5;" cx="163.338" cy="84.465" rx="43.278" ry="43.278"/>
		</g>
		<g>
			<g>
				<path style="fill:#E0E0E0;" d="M182.988,85.797c0,0.036-0.541,0.07-1.529,0.101c-1.082,0.022-2.494,0.05-4.206,0.085
					c-3.569,0.05-8.542,0.083-14.156,0.092l-0.278,0l0-0.278c-0.001-0.898-0.001-1.845-0.002-2.806
					c0-6.269,0.031-11.944,0.082-16.052c0.036-1.98,0.066-3.619,0.089-4.864c0.033-1.148,0.07-1.783,0.109-1.783
					c0.039,0,0.076,0.635,0.109,1.783c0.023,1.245,0.053,2.884,0.089,4.864c0.051,4.108,0.082,9.783,0.082,16.052
					c-0.001,0.961-0.002,1.908-0.002,2.806l-0.278-0.278c5.613,0.009,10.586,0.042,14.156,0.092
					c1.712,0.035,3.124,0.063,4.206,0.085C182.447,85.727,182.988,85.761,182.988,85.797z"/>
			</g>
		</g>
		<g>
			<g>
				<path style="fill:#E0E0E0;" d="M163.23,48.296c0.155,0,0.28,1.628,0.28,3.635c0,2.008-0.125,3.636-0.28,3.636
					c-0.155,0-0.28-1.627-0.28-3.636C162.95,49.924,163.075,48.296,163.23,48.296z"/>
			</g>
		</g>
		<g>
			<g>
				<path style="fill:#E0E0E0;" d="M182.949,54.134c0.11,0.109-0.936,1.333-2.336,2.732c-1.4,1.4-2.623,2.445-2.732,2.336
					c-0.109-0.109,0.936-1.332,2.336-2.732C181.617,55.071,182.84,54.025,182.949,54.134z"/>
			</g>
		</g>
		<g>
			<g>
				<path style="fill:#E0E0E0;" d="M194.479,66.73c0.071,0.141-1.302,0.967-2.982,1.99c-1.683,1.02-3.048,1.859-3.14,1.731
					c-0.09-0.122,1.144-1.175,2.85-2.209C192.908,67.205,194.412,66.594,194.479,66.73z"/>
			</g>
		</g>
		<g>
			<g>
				<path style="fill:#E0E0E0;" d="M201.236,85.421c0,0.155-2.22,0.28-4.957,0.28c-2.738,0-4.958-0.125-4.958-0.28
					c0-0.154,2.219-0.28,4.958-0.28C199.017,85.141,201.236,85.267,201.236,85.421z"/>
			</g>
		</g>
		<g>
			<g>
				<path style="fill:#E0E0E0;" d="M132.494,84.76c0,0.155-2.096,0.28-4.682,0.28c-2.586,0-4.682-0.125-4.682-0.28
					c0-0.155,2.096-0.28,4.682-0.28C130.398,84.48,132.494,84.605,132.494,84.76z"/>
			</g>
		</g>
		<g>
			<g>
				<path style="fill:#E0E0E0;" d="M137.356,98.676c0.101,0.117-1.483,1.554-3.538,3.209c-2.056,1.656-3.797,2.897-3.889,2.773
					c-0.093-0.124,1.491-1.561,3.538-3.209C135.513,99.801,137.254,98.559,137.356,98.676z"/>
			</g>
		</g>
		<g>
			<g>
				<path style="fill:#E0E0E0;" d="M149.35,109.437c0.129,0.094-1.046,1.901-2.408,4.174c-1.368,2.27-2.412,4.155-2.555,4.086
					c-0.135-0.064,0.692-2.078,2.075-4.374C147.839,111.024,149.23,109.348,149.35,109.437z"/>
			</g>
		</g>
		<g>
			<g>
				<path style="fill:#E0E0E0;" d="M163.23,123.318c-0.155,0-0.28-2.22-0.28-4.957c0-2.738,0.125-4.958,0.28-4.958
					c0.155,0,0.28,2.219,0.28,4.958C163.51,121.098,163.384,123.318,163.23,123.318z"/>
			</g>
		</g>
		<g>
			<g>
				<path style="fill:#E0E0E0;" d="M184.599,116.712c-0.078,0.125-2.018-0.991-4.087-2.8c-2.076-1.803-3.445-3.572-3.332-3.667
					c0.121-0.107,1.657,1.471,3.7,3.245C182.915,115.271,184.688,116.578,184.599,116.712z"/>
			</g>
		</g>
		<g>
			<g>
				<path style="fill:#E0E0E0;" d="M194.627,105.912c-0.109,0.109-1.579-1.183-3.282-2.886c-1.704-1.704-2.996-3.173-2.887-3.283
					c0.109-0.109,1.579,1.183,3.283,2.887C193.443,104.333,194.736,105.802,194.627,105.912z"/>
			</g>
		</g>
		<g>
			<g>
				<path style="fill:#E0E0E0;" d="M136.901,71.43c-0.109,0.109-1.406-1.01-2.897-2.501c-1.491-1.491-2.611-2.788-2.501-2.897
					c0.109-0.109,1.406,1.01,2.897,2.501C135.89,70.024,137.01,71.321,136.901,71.43z"/>
			</g>
		</g>
		<g>
			<g>
				<path style="fill:#E0E0E0;" d="M149.277,58.393c-0.109,0.11-1.384-0.983-2.847-2.439c-1.464-1.457-2.561-2.727-2.452-2.837
					c0.109-0.11,1.384,0.983,2.848,2.44C148.288,57.013,149.386,58.283,149.277,58.393z"/>
			</g>
		</g>
	</g>
	<g style="opacity:0.8;">
		<g>
			<g>
				<path style="fill-rule:evenodd;clip-rule:evenodd;fill:#EBEBEB;" d="M398.739,62.294c2.288,1.192,4.376,2.673,6.226,4.386
					l6.652-2.368l6.252,9.869l-4.982,5.004c0.758,2.404,1.207,4.925,1.307,7.504l6.377,3.028l-2.558,11.4l-7.058,0.016
					c-1.191,2.289-2.674,4.377-4.387,6.227l2.368,6.653l-9.868,6.252l-5.005-4.982c-2.404,0.758-4.925,1.205-7.504,1.305
					l-3.027,6.377l-11.401-2.557l-0.015-7.059c-2.289-1.191-4.376-2.673-6.226-4.387l-6.654,2.368l-6.253-9.869l4.984-5.004
					c-0.758-2.404-1.205-4.924-1.307-7.503l-6.375-3.028l2.557-11.4l7.058-0.015c1.191-2.289,2.674-4.377,4.387-6.227l-2.368-6.653
					l9.868-6.252l5.005,4.983c2.404-0.758,4.924-1.206,7.504-1.306l3.027-6.376l11.399,2.557L398.739,62.294L398.739,62.294z
					 M388.688,75.709c-6.753-1.515-13.457,2.731-14.972,9.486c-1.515,6.754,2.733,13.457,9.486,14.972
					c6.755,1.515,13.457-2.732,14.972-9.486C399.689,83.927,395.443,77.224,388.688,75.709z"/>
			</g>
		</g>
	</g>
	<g>
		<path style="fill:#F5F5F5;" d="M63.701,162.583h73.973c0,0-6.541-11.904-25.582-10.171c-18.185,1.655-19.11-5.856-28.356-6.781
			C74.488,144.706,66.783,151.795,63.701,162.583z"/>
	</g>
	<g>
		<path style="fill:#F5F5F5;" d="M223.797,297.075h59.876c0,0-5.295-9.635-20.707-8.233c-14.719,1.339-15.468-4.74-22.952-5.489
			C232.529,282.605,226.292,288.343,223.797,297.075z"/>
	</g>
</g>
<g id="Background_Simple" style="display:none;">
	<path style="display:inline;fill:#F5F5F5;" d="M409.01,77.959l-2.119-3.447c-17.859-29.061-50.149-46.58-84.193-44.454
		c-4.376,0.273-8.734,0.858-13.033,1.767c-30.953,6.543-57.886,29.656-69.05,59.258c-6.565,17.409-8.4,37.454-20.859,51.272
		c-16.215,17.984-43.744,18.549-67.948,17.804c-24.203-0.745-51.751-0.11-67.887,17.946c-10.106,11.308-13.317,27.388-12.503,42.531
		c2.158,40.093,30.449,75.941,66.429,93.76c35.98,17.819,78.342,19.414,117.72,11.576c55.164-10.981,107.624-41.136,139.157-87.712
		S434.239,128.23,409.01,77.959z"/>
	<path style="display:inline;fill:#F5F5F5;" d="M188.068,88.799c-5.988-6.807-18.534-10.558-27.634-9.526l0,0
		c-8.277-0.214-16.559,3.693-21.658,10.215c-5.099,6.522-6.892,15.503-4.688,23.483c3.385,12.257,15.419,20.671,27.909,23.055
		c7.981,1.524,16.798,0.823,23.357-3.974c6.429-4.702,9.784-12.702,10.653-20.619C196.995,102.422,194.056,95.605,188.068,88.799z"
		/>
</g>
<g id="Floor">
	<g>
		<path style="fill:#263238;" d="M480.145,444.82c0,0.144-103.048,0.26-230.134,0.26c-127.131,0-230.156-0.117-230.156-0.26
			c0-0.144,103.026-0.26,230.156-0.26C377.097,444.56,480.145,444.676,480.145,444.82z"/>
	</g>
</g>
<g id="Screens">
	<g>
		<g>
			<g>
				<rect x="309.909" y="145.125" style="fill:#FFFFFF;" width="145.283" height="97.276"/>
			</g>
			<g>
				<g>
					<path style="fill:#E8505B;" d="M455.191,242.401c0,0-0.015-0.608-0.022-1.77c-0.005-1.169-0.013-2.887-0.023-5.132
						c-0.012-4.502-0.03-11.107-0.053-19.564c-0.026-16.901-0.064-41.194-0.109-70.81l0.208,0.208
						c-40.033,0.014-90.536,0.033-145.271,0.052h-0.012l0.26-0.26c-0.008,34.655-0.015,67.609-0.022,97.275l-0.238-0.238
						c42.768,0.048,79.057,0.089,104.667,0.118c12.815,0.027,22.955,0.049,29.903,0.064c3.469,0.013,6.14,0.022,7.954,0.029
						c0.898,0.006,1.583,0.011,2.054,0.014C454.949,242.391,455.191,242.401,455.191,242.401s-0.224,0.009-0.677,0.014
						c-0.465,0.003-1.14,0.008-2.027,0.014c-1.803,0.007-4.458,0.016-7.906,0.029c-6.935,0.015-17.057,0.037-29.849,0.064
						c-25.648,0.029-61.991,0.07-104.823,0.118l-0.239,0v-0.239c-0.007-29.666-0.014-62.621-0.022-97.275l0-0.26h0.261h0.012
						c54.735,0.02,105.238,0.038,145.271,0.052l0.209,0l0,0.208c-0.046,29.671-0.083,54.008-0.109,70.939
						c-0.023,8.437-0.041,15.026-0.053,19.517c-0.01,2.228-0.018,3.934-0.023,5.093
						C455.206,241.822,455.191,242.401,455.191,242.401z"/>
				</g>
			</g>
		</g>
		<g>
			<g>
				<path style="fill:#E8505B;" d="M309.909,153.806c0-0.144,32.498-0.26,72.578-0.26c40.093,0,72.585,0.117,72.585,0.26
					s-32.491,0.26-72.585,0.26C342.407,154.066,309.909,153.95,309.909,153.806z"/>
			</g>
		</g>
		<g>
			<g style="opacity:0.3;">
				<path style="fill:#E8505B;" d="M315.641,149.427c0,0.643-0.521,1.164-1.164,1.164s-1.164-0.521-1.164-1.164
					c0-0.643,0.521-1.164,1.164-1.164S315.641,148.784,315.641,149.427z"/>
			</g>
			<g style="opacity:0.3;">
				<path style="fill:#E8505B;" d="M319.63,149.427c0,0.643-0.521,1.164-1.164,1.164c-0.643,0-1.164-0.521-1.164-1.164
					c0-0.643,0.521-1.164,1.164-1.164C319.109,148.262,319.63,148.784,319.63,149.427z"/>
			</g>
			<g style="opacity:0.3;">
				<path style="fill:#E8505B;" d="M323.563,149.427c0,0.643-0.521,1.164-1.164,1.164c-0.643,0-1.164-0.521-1.164-1.164
					c0-0.643,0.521-1.164,1.164-1.164C323.042,148.262,323.563,148.784,323.563,149.427z"/>
			</g>
		</g>
		<g style="opacity:0.3;">
			<rect x="322.399" y="163.95" style="fill:#E8505B;" width="38.754" height="38.754"/>
		</g>
		<g>
			<g>
				<path style="fill:#E8505B;" d="M435.268,174.904c0,0.144-15.115,0.26-33.755,0.26c-18.647,0-33.758-0.117-33.758-0.26
					s15.111-0.26,33.758-0.26C420.154,174.644,435.268,174.76,435.268,174.904z"/>
			</g>
		</g>
		<g>
			<g>
				<path style="fill:#E8505B;" d="M435.268,182.106c0,0.144-15.115,0.26-33.755,0.26c-18.647,0-33.758-0.117-33.758-0.26
					c0-0.144,15.111-0.26,33.758-0.26C420.154,181.846,435.268,181.962,435.268,182.106z"/>
			</g>
		</g>
		<g>
			<g>
				<path style="fill:#E8505B;" d="M435.268,189.308c0,0.144-15.115,0.26-33.755,0.26c-18.647,0-33.758-0.117-33.758-0.26
					s15.111-0.26,33.758-0.26C420.154,189.047,435.268,189.164,435.268,189.308z"/>
			</g>
		</g>
		<g>
			<g>
				<path style="fill:#E8505B;" d="M407.656,196.509c0,0.036-0.558,0.07-1.568,0.101c-1.103,0.021-2.542,0.049-4.276,0.083
					c-3.61,0.047-8.598,0.076-14.106,0.076c-5.51,0-10.498-0.029-14.109-0.076c-1.734-0.034-3.173-0.061-4.276-0.083
					c-1.009-0.031-1.568-0.065-1.568-0.101c0-0.036,0.558-0.07,1.568-0.101c1.103-0.021,2.541-0.049,4.276-0.083
					c3.61-0.047,8.598-0.076,14.109-0.076c5.508,0,10.496,0.029,14.106,0.076c1.734,0.034,3.173,0.061,4.276,0.083
					C407.098,196.439,407.656,196.473,407.656,196.509z"/>
			</g>
		</g>
		<g style="opacity:0.3;">
			<rect x="324.824" y="215.77" style="fill:#E8505B;" width="18.212" height="18.213"/>
		</g>
		<g style="opacity:0.3;">
			<rect x="357.853" y="215.77" style="fill:#E8505B;" width="18.212" height="18.213"/>
		</g>
		<g style="opacity:0.3;">
			<rect x="390.882" y="215.77" style="fill:#E8505B;" width="18.213" height="18.213"/>
		</g>
		<g style="opacity:0.3;">
			<rect x="423.911" y="215.77" style="fill:#E8505B;" width="18.213" height="18.213"/>
		</g>
	</g>
	<g>
		<g>
			<g>
				<rect x="44.21" y="180.169" style="fill:#FFFFFF;" width="129.422" height="52.569"/>
			</g>
			<g>
				<g>
					<path style="fill:#E8505B;" d="M173.632,232.738c0,0-0.01-0.323-0.015-0.939c-0.004-0.623-0.009-1.534-0.016-2.727
						c-0.008-2.399-0.02-5.923-0.036-10.462c-0.018-9.073-0.045-22.198-0.078-38.441l0.144,0.144
						c-32.923,0.016-78.753,0.037-129.413,0.061H44.21l0.205-0.205c-0.003,18.409-0.006,36.179-0.009,52.569l-0.196-0.196
						c37.5,0.037,69.829,0.07,92.793,0.092c11.491,0.023,20.636,0.042,26.919,0.054c3.138,0.011,5.559,0.019,7.205,0.025
						c0.816,0.005,1.438,0.009,1.865,0.012C173.412,232.73,173.632,232.738,173.632,232.738s-0.204,0.008-0.617,0.012
						c-0.422,0.003-1.036,0.007-1.842,0.012c-1.637,0.006-4.044,0.014-7.164,0.025c-6.272,0.013-15.402,0.031-26.874,0.054
						c-22.997,0.023-55.372,0.055-92.926,0.093l-0.196,0v-0.196c-0.003-16.39-0.006-34.16-0.009-52.569v-0.205h0.205h0.009
						c50.661,0.024,96.49,0.045,129.413,0.061l0.144,0l0,0.144c-0.033,16.28-0.06,29.434-0.078,38.528
						c-0.015,4.525-0.027,8.038-0.036,10.43c-0.007,1.182-0.012,2.085-0.016,2.701C173.642,232.435,173.632,232.738,173.632,232.738
						z"/>
				</g>
			</g>
		</g>
		<g>
			<g>
				<path style="fill:#E8505B;" d="M44.34,187.259c0-0.113,28.928-0.205,64.605-0.205c35.689,0,64.612,0.092,64.612,0.205
					c0,0.113-28.922,0.205-64.612,0.205C73.268,187.463,44.34,187.372,44.34,187.259z"/>
			</g>
		</g>
		<g>
			<g style="opacity:0.3;">
				<path style="fill:#E8505B;" d="M49.758,184.088c0,0.519-0.421,0.939-0.939,0.939c-0.519,0-0.939-0.421-0.939-0.939
					c0-0.519,0.42-0.939,0.939-0.939C49.337,183.148,49.758,183.569,49.758,184.088z"/>
			</g>
			<g style="opacity:0.3;">
				<path style="fill:#E8505B;" d="M52.976,184.088c0,0.519-0.421,0.939-0.939,0.939c-0.519,0-0.939-0.421-0.939-0.939
					c0-0.519,0.42-0.939,0.939-0.939C52.556,183.148,52.976,183.569,52.976,184.088z"/>
			</g>
			<g style="opacity:0.3;">
				<path style="fill:#E8505B;" d="M56.149,184.088c0,0.519-0.421,0.939-0.939,0.939c-0.519,0-0.939-0.421-0.939-0.939
					c0-0.519,0.421-0.939,0.939-0.939C55.728,183.148,56.149,183.569,56.149,184.088z"/>
			</g>
		</g>
		<g style="opacity:0.3;">
			<rect x="55.209" y="195.803" style="fill:#E8505B;" width="31.26" height="31.26"/>
		</g>
		<g>
			<g>
				<g>
					<path style="fill:#E8505B;" d="M164.678,204.18c0,0.113-16.086,0.205-35.925,0.205c-19.846,0-35.929-0.092-35.929-0.205
						c0-0.113,16.083-0.205,35.929-0.205C148.591,203.975,164.678,204.067,164.678,204.18z"/>
				</g>
			</g>
			<g>
				<g>
					<path style="fill:#E8505B;" d="M164.678,210.548c0,0.113-16.086,0.205-35.925,0.205c-19.846,0-35.929-0.092-35.929-0.205
						c0-0.113,16.083-0.205,35.929-0.205C148.591,210.344,164.678,210.435,164.678,210.548z"/>
				</g>
			</g>
			<g>
				<g>
					<path style="fill:#E8505B;" d="M139.079,216.917c0,0.014-0.162,0.028-0.47,0.041c-0.353,0.01-0.799,0.023-1.348,0.038
						c-1.225,0.016-2.905,0.038-4.957,0.065c-4.234,0.016-9.991,0.037-16.353,0.06c-6.363-0.023-12.121-0.044-16.355-0.06
						c-2.052-0.027-3.731-0.049-4.956-0.065c-0.549-0.016-0.995-0.028-1.348-0.038c-0.308-0.013-0.47-0.027-0.47-0.041
						c0-0.014,0.162-0.028,0.47-0.041c0.353-0.01,0.799-0.023,1.348-0.038c1.225-0.016,2.904-0.038,4.956-0.065
						c4.234-0.016,9.992-0.037,16.355-0.06c6.361,0.023,12.118,0.044,16.353,0.06c2.052,0.027,3.731,0.049,4.957,0.065
						c0.549,0.016,0.995,0.028,1.348,0.038C138.917,216.889,139.079,216.903,139.079,216.917z"/>
				</g>
			</g>
		</g>
	</g>
</g>
<g id="Rocket">
	<path style="fill:#F5F5F5;" d="M268.732,114.11c-2.169-1.446-5.148-0.571-7.317,0.876c-2.169,1.447-4.023,3.43-6.453,4.375
		c-4.565,1.774-10.547-0.328-14.095,3.048c-2.251,2.143-2.481,5.66-4.201,8.248c-2.898,4.36-9.851,5.998-10.448,11.199
		c-0.348,3.034,2.053,5.943,4.986,6.794c2.933,0.851,6.159-0.047,8.702-1.738c2.97-1.974,5.303-5.018,8.688-6.142
		c3.459-1.148,7.728-0.187,10.457-2.602c2.734-2.42,2.321-6.857,4.277-9.94c1.042-1.641,2.684-2.786,4.155-4.056
		s2.872-2.842,3.118-4.77C270.848,117.472,270.057,114.184,268.732,114.11"/>
	<g>
		<g>
			<path style="fill:#263238;" d="M212.384,326.56c0.123-0.075,0.528,0.329,0.906,0.903c0.377,0.574,0.588,1.106,0.471,1.189
				c-0.117,0.083-0.523-0.321-0.906-0.903C212.472,327.168,212.261,326.635,212.384,326.56z"/>
		</g>
		<g>
			<path style="fill:#263238;" d="M208.098,317.54c0.136-0.046,0.669,0.946,1.191,2.215c0.521,1.27,0.838,2.35,0.709,2.413
				c-0.129,0.063-0.663-0.929-1.191-2.216C208.279,318.667,207.962,317.586,208.098,317.54z"/>
		</g>
		<g>
			<path style="fill:#263238;" d="M205.779,307.818c0.143-0.018,0.462,1.062,0.713,2.412c0.25,1.351,0.34,2.473,0.2,2.508
				c-0.14,0.034-0.459-1.045-0.712-2.413C205.726,308.959,205.637,307.836,205.779,307.818z"/>
		</g>
		<g>
			<path style="fill:#263238;" d="M205.428,297.83c0.144,0.01,0.245,1.132,0.226,2.505c-0.019,1.373-0.152,2.492-0.295,2.498
				c-0.144,0.006-0.245-1.115-0.226-2.505C205.152,298.938,205.285,297.819,205.428,297.83z"/>
		</g>
		<g>
			<path style="fill:#263238;" d="M207.045,287.966c0.138,0.039,0.016,1.159-0.273,2.501c-0.29,1.343-0.64,2.413-0.782,2.391
				c-0.142-0.022-0.02-1.142,0.273-2.501C206.556,288.997,206.906,287.927,207.045,287.966z"/>
		</g>
		<g>
			<path style="fill:#263238;" d="M210.641,278.647c0.127,0.067-0.224,1.137-0.786,2.389c-0.562,1.253-1.126,2.227-1.261,2.176
				c-0.135-0.05,0.217-1.12,0.786-2.389C209.949,279.554,210.514,278.579,210.641,278.647z"/>
		</g>
		<g>
			<path style="fill:#263238;" d="M216.151,270.313c0.111,0.091-0.463,1.06-1.282,2.163c-0.817,1.105-1.587,1.929-1.692,1.861
				c-0.135-0.09,0.447-1.052,1.273-2.169C215.278,271.052,216.04,270.222,216.151,270.313z"/>
		</g>
		<g>
			<path style="fill:#263238;" d="M222.874,262.905c0.102,0.101-0.586,0.992-1.536,1.991c-0.951,0.999-1.808,1.729-1.914,1.632
				s0.581-0.988,1.536-1.991C221.914,263.535,222.771,262.804,222.874,262.905z"/>
		</g>
		<g>
			<path style="fill:#263238;" d="M229.914,255.794c0.104,0.1-0.599,0.979-1.57,1.964c-0.971,0.985-1.84,1.701-1.942,1.6
				c-0.102-0.102,0.601-0.981,1.57-1.964C228.941,256.41,229.81,255.694,229.914,255.794z"/>
		</g>
		<g>
			<path style="fill:#263238;" d="M236.487,248.254c0.115,0.086-0.505,1.026-1.385,2.099c-0.881,1.073-1.681,1.865-1.789,1.77
				c-0.107-0.096,0.513-1.035,1.385-2.099C235.571,248.96,236.372,248.168,236.487,248.254z"/>
		</g>
		<g>
			<path style="fill:#263238;" d="M241.591,239.67c0.131,0.054-0.198,1.143-0.84,2.381c-0.64,1.239-1.332,2.139-1.453,2.065
				c-0.125-0.076,0.361-1.085,0.99-2.304C240.92,240.595,241.457,239.614,241.591,239.67z"/>
		</g>
		<g>
			<path style="fill:#263238;" d="M244.025,230.006c0.141,0.009,0.177,1.148-0.054,2.525c-0.227,1.378-0.63,2.443-0.767,2.407
				c-0.141-0.037,0.03-1.141,0.253-2.492C243.683,231.096,243.879,229.996,244.025,230.006z"/>
		</g>
		<g>
			<path style="fill:#263238;" d="M243.283,220.067c0.137-0.035,0.528,1.035,0.741,2.414c0.216,1.38,0.168,2.518,0.027,2.525
				c-0.146,0.009-0.33-1.093-0.542-2.446C243.301,221.208,243.141,220.103,243.283,220.067z"/>
		</g>
		<g>
			<path style="fill:#263238;" d="M239.354,210.92c0.116-0.08,0.851,0.791,1.509,2.023c0.661,1.23,0.983,2.322,0.853,2.375
				c-0.136,0.056-0.664-0.926-1.312-2.129C239.76,211.984,239.232,211.002,239.354,210.92z"/>
		</g>
		<g>
			<path style="fill:#263238;" d="M232.376,203.823c0.077-0.118,1.087,0.414,2.16,1.312c1.075,0.896,1.776,1.798,1.674,1.894
				c-0.106,0.102-0.957-0.62-2.008-1.495C233.155,204.656,232.294,203.945,232.376,203.823z"/>
		</g>
		<g>
			<path style="fill:#263238;" d="M223.286,199.764c0.03-0.138,1.163,0,2.486,0.454c1.324,0.451,2.304,1.035,2.244,1.162
				c-0.061,0.133-1.118-0.229-2.412-0.669C224.31,200.266,223.253,199.906,223.286,199.764z"/>
		</g>
		<g>
			<path style="fill:#263238;" d="M213.35,199.312c-0.025-0.138,1.076-0.449,2.474-0.52c1.399-0.075,2.525,0.115,2.515,0.255
				c-0.009,0.147-1.124,0.191-2.488,0.265C214.488,199.381,213.375,199.457,213.35,199.312z"/>
		</g>
		<g>
			<path style="fill:#263238;" d="M204.125,202.988c-0.082-0.113,0.776-0.87,2.012-1.532c1.234-0.666,2.342-0.961,2.39-0.829
				c0.052,0.137-0.943,0.639-2.144,1.288C205.181,202.558,204.21,203.108,204.125,202.988z"/>
		</g>
		<g>
			<path style="fill:#263238;" d="M197.259,210.177c-0.121-0.072,0.367-1.106,1.227-2.21c0.858-1.107,1.739-1.835,1.838-1.736
				c0.105,0.103-0.591,0.975-1.427,2.055C198.057,209.363,197.384,210.253,197.259,210.177z"/>
		</g>
		<g>
			<path style="fill:#263238;" d="M193.89,219.52c-0.14-0.013-0.138-1.16,0.195-2.522c0.329-1.364,0.848-2.384,0.978-2.333
				c0.138,0.052-0.152,1.129-0.472,2.456C194.266,218.446,194.036,219.536,193.89,219.52z"/>
		</g>
		<g>
			<path style="fill:#263238;" d="M195.077,229.366c-0.13,0.051-0.647-0.97-0.977-2.332c-0.335-1.362-0.341-2.507-0.202-2.521
				c0.146-0.016,0.381,1.073,0.708,2.398C194.927,228.237,195.215,229.314,195.077,229.366z"/>
		</g>
		<g>
			<path style="fill:#263238;" d="M200.148,237.935c-0.106,0.092-0.935-0.687-1.749-1.821c-0.817-1.132-1.287-2.171-1.165-2.241
				c0.126-0.074,0.786,0.827,1.587,1.937C199.62,236.922,200.259,237.839,200.148,237.935z"/>
		</g>
		<g>
			<path style="fill:#263238;" d="M207.512,244.677c-0.082,0.116-1.072-0.439-2.154-1.314c-1.085-0.874-1.834-1.727-1.737-1.831
				c0.099-0.107,0.995,0.564,2.064,1.426C206.752,243.821,207.596,244.558,207.512,244.677z"/>
		</g>
		<g>
			<path style="fill:#263238;" d="M216.18,249.647c-0.057,0.132-1.109-0.272-2.348-0.902c-1.24-0.63-2.185-1.242-2.112-1.366
				c0.073-0.124,1.124,0.279,2.348,0.902C215.292,248.904,216.237,249.516,216.18,249.647z"/>
		</g>
		<g>
			<path style="fill:#263238;" d="M225.696,252.676c-0.025,0.14-1.158,0.053-2.506-0.295c-1.349-0.345-2.384-0.811-2.339-0.946
				c0.046-0.139,1.139,0.101,2.469,0.441C224.648,252.219,225.722,252.533,225.696,252.676z"/>
		</g>
		<g>
			<path style="fill:#263238;" d="M235.656,253.189c0.016,0.141-1.097,0.379-2.491,0.404c-1.395,0.028-2.515-0.164-2.505-0.305
				c0.009-0.146,1.126-0.188,2.495-0.216C234.523,253.049,235.64,253.044,235.656,253.189z"/>
		</g>
		<g>
			<path style="fill:#263238;" d="M245.281,250.616c0.061,0.127-0.914,0.716-2.229,1.188c-1.314,0.475-2.442,0.639-2.476,0.502
				c-0.036-0.142,1.012-0.527,2.299-0.992C244.164,250.852,245.219,250.483,245.281,250.616z"/>
		</g>
		<g>
			<path style="fill:#263238;" d="M253.623,245.154c0.095,0.104-0.663,0.951-1.77,1.799c-1.105,0.851-2.121,1.363-2.197,1.244
				c-0.079-0.123,0.794-0.821,1.88-1.657C252.624,245.707,253.525,245.045,253.623,245.154z"/>
		</g>
		<g>
			<path style="fill:#263238;" d="M260.133,237.588c0.12,0.076-0.39,1.092-1.228,2.206c-0.836,1.116-1.67,1.889-1.776,1.795
				c-0.11-0.096,0.537-1.009,1.359-2.108C259.313,238.385,260.01,237.509,260.133,237.588z"/>
		</g>
		<g>
			<path style="fill:#263238;" d="M264.464,228.594c0.135,0.042-0.094,1.156-0.617,2.448c-0.521,1.293-1.127,2.255-1.254,2.191
				c-0.131-0.065,0.259-1.114,0.771-2.386C263.878,229.576,264.325,228.55,264.464,228.594z"/>
		</g>
		<g>
			<path style="fill:#263238;" d="M266.4,218.798c0.142,0.01,0.179,1.144-0.011,2.522c-0.187,1.38-0.529,2.462-0.668,2.433
				c-0.143-0.029-0.032-1.143,0.152-2.503C266.061,219.891,266.255,218.788,266.4,218.798z"/>
		</g>
		<g>
			<path style="fill:#263238;" d="M266.143,208.808c0.143-0.019,0.345,1.088,0.453,2.474c0.107,1.386,0.077,2.512-0.066,2.514
				c-0.144,0.003-0.347-1.105-0.453-2.474C265.97,209.954,266,208.828,266.143,208.808z"/>
		</g>
		<g>
			<path style="fill:#263238;" d="M263.971,199.048c0.137-0.045,0.542,1.007,0.905,2.348c0.363,1.342,0.543,2.454,0.402,2.484
				c-0.14,0.03-0.546-1.021-0.905-2.349C264.014,200.205,263.835,199.092,263.971,199.048z"/>
		</g>
		<g>
			<path style="fill:#263238;" d="M260.143,189.807c0.126-0.065,0.73,0.889,1.332,2.14c0.561,1.271,0.908,2.345,0.775,2.399
				c-0.133,0.054-0.691-0.921-1.247-2.179C260.406,190.927,260.013,189.874,260.143,189.807z"/>
		</g>
		<g>
			<path style="fill:#263238;" d="M255.223,181.095c0.124-0.074,0.791,0.834,1.49,2.027c0.7,1.193,1.166,2.218,1.041,2.289
				c-0.125,0.071-0.792-0.836-1.49-2.027C255.565,182.194,255.099,181.169,255.223,181.095z"/>
		</g>
		<g>
			<path style="fill:#263238;" d="M250.258,172.408c0.128-0.066,0.772,0.858,1.439,2.063c0.667,1.206,1.107,2.242,0.983,2.314
				c-0.124,0.072-0.769-0.851-1.439-2.064C250.57,173.51,250.13,172.474,250.258,172.408z"/>
		</g>
		<g>
			<path style="fill:#263238;" d="M246.352,163.212c0.138-0.041,0.638,0.967,1.116,2.251c0.479,1.285,0.759,2.374,0.628,2.432
				c-0.132,0.058-0.631-0.95-1.116-2.252C246.495,164.343,246.214,163.254,246.352,163.212z"/>
		</g>
		<g>
			<path style="fill:#263238;" d="M244.65,153.378c0.146-0.005,0.298,1.104,0.444,2.467c0.144,1.364,0.229,2.479,0.086,2.505
				c-0.139,0.026-0.458-1.064-0.604-2.45C244.428,154.515,244.509,153.382,244.65,153.378z"/>
		</g>
		<g>
			<path style="fill:#263238;" d="M245.476,143.428c0.143,0.031,0.016,1.144-0.181,2.501c-0.2,1.358-0.397,2.46-0.543,2.449
				c-0.141-0.01-0.175-1.145,0.027-2.524C244.981,144.475,245.338,143.397,245.476,143.428z"/>
		</g>
		<g>
			<path style="fill:#263238;" d="M248.736,133.992c0.13,0.066-0.27,1.11-0.797,2.376c-0.53,1.265-0.992,2.284-1.13,2.237
				c-0.135-0.044,0.112-1.153,0.65-2.438C247.994,134.882,248.61,133.928,248.736,133.992z"/>
		</g>
		<g>
			<path style="fill:#263238;" d="M254.311,125.713c0.108,0.098-0.551,1.001-1.39,2.086c-0.841,1.083-1.55,1.948-1.672,1.868
				c-0.119-0.077,0.406-1.086,1.26-2.187C253.361,126.377,254.206,125.617,254.311,125.713z"/>
		</g>
		<g>
			<path style="fill:#263238;" d="M261.817,119.132c0.081,0.122-0.783,0.833-1.869,1.672c-1.087,0.837-1.995,1.492-2.092,1.383
				c-0.095-0.105,0.67-0.946,1.774-1.795C260.732,119.54,261.739,119.013,261.817,119.132z"/>
		</g>
		<g>
			<path style="fill:#263238;" d="M270.718,114.605c0.048,0.138-0.965,0.613-2.223,1.159c-1.26,0.543-2.3,0.955-2.368,0.825
				c-0.066-0.125,0.882-0.752,2.161-1.303C269.566,114.732,270.672,114.471,270.718,114.605z"/>
		</g>
		<g>
			<path style="fill:#263238;" d="M277.97,112.772c0.02,0.142-0.509,0.359-1.183,0.483c-0.674,0.124-1.246,0.111-1.277-0.03
				c-0.032-0.14,0.498-0.356,1.183-0.483C277.378,112.616,277.95,112.629,277.97,112.772z"/>
		</g>
	</g>
	<g>
		<path style="fill:#E8505B;" d="M298.377,83.327c0,0,11.745-8.378,28-2.968c0,0,1.336,13.456-11.699,24.157"/>
		<path style="fill:#E8505B;" d="M261.351,108.19c0.5,0.75,13.245,21.242,13.245,21.242l38.274-23.58
			c6.682-4.117,8.41-13.071,3.738-19.378l0,0c-4.26-5.751-12.289-7.137-18.231-3.147L261.351,108.19z"/>
		<path style="fill:#263238;" d="M274.597,129.432l-0.857,14.417c0,0,24.803-12.012,18.613-25.356L274.597,129.432z"/>
		<path style="fill:#263238;" d="M279.08,96.285c0,0-16.815-7.42-30.665,3.462l12.936,8.443L279.08,96.285z"/>
		<path style="fill:#263238;" d="M278.961,108.2l-23.936,14.972c0,0,0.822,2.575,1.466,2.36c0.539-0.18,18.525-10.8,24.357-14.248
			c0.954-0.564,1.173-1.841,0.47-2.698l0,0C280.742,107.883,279.733,107.718,278.961,108.2z"/>
		<g>
			
				<ellipse transform="matrix(0.229 -0.9734 0.9734 0.229 137.7969 367.6824)" style="fill:#FAFAFA;" cx="301.007" cy="96.853" rx="7.663" ry="7.663"/>
			<g>
				<path style="fill:#263238;" d="M308.671,96.853c-0.06,0.004-0.028-0.683-0.338-1.846c-0.307-1.141-1.081-2.813-2.8-4.099
					c-0.852-0.628-1.921-1.16-3.15-1.37c-1.221-0.202-2.597-0.159-3.903,0.343c-1.306,0.472-2.552,1.363-3.437,2.593
					c-0.91,1.214-1.422,2.772-1.437,4.378c0.015,1.607,0.526,3.165,1.437,4.379c0.885,1.231,2.131,2.122,3.438,2.594
					c1.306,0.502,2.682,0.546,3.904,0.343c1.23-0.21,2.299-0.742,3.15-1.371c1.719-1.286,2.493-2.957,2.8-4.098
					C308.643,97.536,308.611,96.85,308.671,96.853c0.018,0,0.027,0.168,0.028,0.492c0.007,0.322-0.034,0.803-0.169,1.404
					c-0.254,1.186-1,2.953-2.773,4.342c-0.878,0.679-1.996,1.26-3.294,1.502c-1.289,0.234-2.749,0.204-4.147-0.317
					c-1.397-0.491-2.733-1.432-3.685-2.743c-0.978-1.293-1.532-2.963-1.546-4.681c0.015-1.718,0.569-3.387,1.547-4.68
					c0.952-1.31,2.288-2.252,3.685-2.742c1.397-0.521,2.857-0.551,4.146-0.317c1.298,0.242,2.416,0.824,3.294,1.502
					c1.774,1.389,2.519,3.156,2.774,4.342c0.135,0.601,0.176,1.082,0.169,1.404C308.698,96.685,308.689,96.854,308.671,96.853z"/>
			</g>
		</g>
		<g>
			<path style="fill:#263238;" d="M318.001,101.961c-0.099,0.01-0.215-1.487-0.802-3.817c-0.285-1.166-0.734-2.525-1.332-3.992
				c-0.624-1.456-1.411-3.013-2.395-4.555c-1.001-1.531-2.096-2.89-3.167-4.058c-1.091-1.149-2.145-2.118-3.09-2.857
				c-1.881-1.493-3.198-2.215-3.148-2.301c0.017-0.031,0.355,0.13,0.954,0.451c0.302,0.156,0.665,0.359,1.065,0.63
				c0.403,0.266,0.877,0.549,1.353,0.928c0.988,0.712,2.085,1.668,3.214,2.819c1.109,1.17,2.237,2.546,3.256,4.105
				c1.002,1.57,1.791,3.164,2.401,4.656c0.584,1.502,1.004,2.896,1.246,4.089c0.15,0.59,0.212,1.139,0.289,1.616
				c0.082,0.476,0.118,0.89,0.136,1.23C318.029,101.583,318.037,101.958,318.001,101.961z"/>
		</g>
		<g>
			<path style="fill:#263238;" d="M315.936,103.064c-0.099,0.01-0.219-1.513-0.816-3.882c-0.29-1.187-0.746-2.57-1.352-4.063
				c-0.632-1.482-1.43-3.068-2.426-4.64c-1.013-1.561-2.122-2.948-3.206-4.141c-1.104-1.174-2.171-2.166-3.128-2.924
				c-1.905-1.531-3.238-2.276-3.188-2.361c0.018-0.031,0.36,0.136,0.966,0.468c0.306,0.161,0.673,0.371,1.078,0.649
				c0.407,0.274,0.888,0.565,1.37,0.954c0.999,0.731,2.109,1.71,3.252,2.886c1.121,1.195,2.263,2.599,3.294,4.188
				c1.014,1.6,1.814,3.222,2.432,4.74c0.592,1.529,1.018,2.946,1.266,4.159c0.152,0.6,0.217,1.158,0.296,1.643
				c0.084,0.484,0.121,0.906,0.14,1.251C315.962,102.68,315.972,103.061,315.936,103.064z"/>
		</g>
	</g>
</g>
<g id="Plant">
	<g>
		<g>
			<g>
				<g>
					<path style="fill:#E8505B;" d="M81.84,420.967c-0.857-3.4,1.389-6.796,3.898-9.245c2.509-2.449,5.505-4.639,6.822-7.888
						c2.133-5.264-0.656-12.113,2.959-16.495c2.126-2.578,5.917-3.423,7.807-6.179c0.991-1.445,1.319-3.227,1.715-4.935
						c2.02-8.709,6.431-16.851,12.622-23.3c0.384,7.768-1.373,15.631-5.028,22.496c-1.469,2.76-3.269,5.448-3.768,8.534
						c-0.811,5.012,1.96,10.195,0.7,15.113c-1.441,5.625-7.79,9.359-8.123,15.155c-0.282,4.901,3.967,9.228,3.62,14.124
						c-0.148,2.085-1.127,4.016-2.214,5.801c-3.826,6.28-9.419,10.588-17.858,10.399l-10.339,0.303L81.84,420.967z"/>
				</g>
			</g>
		</g>
		<g style="opacity:0.3;">
			<g>
				<g>
					<g>
						<path d="M81.84,420.967c-0.857-3.4,1.389-6.796,3.898-9.245c2.509-2.449,5.505-4.639,6.822-7.888
							c2.133-5.264-0.656-12.113,2.959-16.495c2.126-2.578,5.917-3.423,7.807-6.179c0.991-1.445,1.319-3.227,1.715-4.935
							c2.02-8.709,6.431-16.851,12.622-23.3c0.384,7.768-1.373,15.631-5.028,22.496c-1.469,2.76-3.269,5.448-3.768,8.534
							c-0.811,5.012,1.96,10.195,0.7,15.113c-1.441,5.625-7.79,9.359-8.123,15.155c-0.282,4.901,3.967,9.228,3.62,14.124
							c-0.148,2.085-1.127,4.016-2.214,5.801c-3.826,6.28-9.419,10.588-17.858,10.399l-10.339,0.303L81.84,420.967z"/>
					</g>
				</g>
			</g>
		</g>
		<g>
			<g>
				<g>
					<g>
						<g>
							<g>
								<path style="fill:#263238;" d="M72.557,445.111c0,0-0.987,0.224-2.846-0.078c-0.926-0.141-2.065-0.393-3.354-0.865
									c-1.282-0.477-2.741-1.155-4.136-2.296c-0.669-0.592-1.338-1.32-1.694-2.284c-0.351-0.959-0.41-2.012-0.469-3.091
									c-0.049-1.081-0.044-2.206-0.222-3.345c-0.168-1.139-0.609-2.26-1.244-3.332c-1.207-2.148-3.219-4.186-3.856-7.097
									c-0.691-2.863-0.166-5.955,0.332-9.059c0.498-3.098,0.982-6.476-0.186-9.712c-1.09-3.239-3.341-6.171-4.454-9.822
									c-1.108-3.688-0.559-7.643-0.775-11.55c-0.098-1.962-0.466-3.926-1.315-5.747c-0.826-1.835-1.976-3.567-2.871-5.498
									c-1.813-3.905-2.111-8.32-2.589-12.648c-0.232-2.181-0.467-4.384-0.704-6.609c-0.234-2.236-0.419-4.463-1.111-6.617
									c-0.625-2.17-1.535-4.271-2.436-6.411c-0.441-1.076-0.908-2.154-1.181-3.348c-0.195-1.219-0.247-2.36-0.313-3.557
									c-0.103-2.371,0.009-4.772,0.316-7.154c0.295-2.384,0.738-4.747,1.008-7.136c0.017-0.141,0.033-0.282,0.049-0.412
									l0.056-0.476l0.422,0.214c2.207,1.121,4.093,2.783,5.538,4.728c1.469,1.932,2.535,4.109,3.383,6.32
									c1.701,4.451,2.297,9.109,3.142,13.555c0.824,4.446,1.92,8.822,4.176,12.526c1.122,1.847,2.483,3.536,3.672,5.339
									c1.186,1.79,2.228,3.754,2.532,5.906c0.587,4.376-1.844,8.203-1.365,12.078c0.168,1.925,0.923,3.728,1.855,5.375
									c0.929,1.657,2.024,3.195,3.062,4.74c1.037,1.545,2.024,3.112,2.748,4.785c0.736,1.668,1.137,3.449,1.241,5.189
									c0.232,3.487-0.281,6.791-0.044,9.915c0.192,3.128,1.274,5.969,2.503,8.51c1.236,2.55,2.614,4.858,3.766,7.095
									c0.58,1.117,1.114,2.208,1.549,3.303c0.46,1.092,0.683,2.211,0.889,3.273c0.327,2.145,0.283,4.142,0.043,5.901
									c-0.47,3.538-1.805,6.081-3,7.507c-0.274,0.381-0.592,0.65-0.842,0.901c-0.244,0.26-0.485,0.435-0.682,0.572
									C72.764,444.982,72.557,445.111,72.557,445.111c-0.045-0.053,0.854-0.522,2.013-1.968c1.146-1.435,2.424-3.958,2.848-7.458
									c0.218-1.739,0.241-3.71-0.099-5.815c-0.212-1.041-0.44-2.137-0.896-3.196c-0.434-1.069-0.974-2.154-1.558-3.26
									c-1.162-2.217-2.554-4.515-3.817-7.082c-1.253-2.554-2.378-5.451-2.591-8.661c-0.254-3.19,0.245-6.506,0.001-9.911
									c-0.109-1.703-0.5-3.402-1.218-5.015c-0.707-1.619-1.68-3.156-2.717-4.689c-1.037-1.535-2.145-3.079-3.1-4.77
									c-0.956-1.68-1.756-3.558-1.941-5.596c-0.475-4.128,1.938-7.98,1.34-12.048c-0.287-2.013-1.276-3.892-2.446-5.649
									c-1.17-1.769-2.539-3.459-3.694-5.353c-2.327-3.811-3.441-8.271-4.274-12.735c-0.853-4.474-1.45-9.082-3.121-13.442
									c-0.832-2.167-1.875-4.289-3.295-6.154c-1.397-1.879-3.202-3.463-5.305-4.533l0.478-0.261
									c-0.015,0.131-0.032,0.274-0.049,0.417c-0.274,2.417-0.719,4.785-1.01,7.141c-0.304,2.355-0.413,4.709-0.314,7.045
									c0.061,1.153,0.124,2.362,0.298,3.45c0.247,1.089,0.704,2.164,1.142,3.229c0.896,2.132,1.819,4.265,2.455,6.482
									c0.706,2.206,0.899,4.518,1.126,6.727c0.234,2.227,0.466,4.432,0.696,6.614c0.469,4.347,0.769,8.691,2.514,12.46
									c0.862,1.876,2.011,3.614,2.861,5.508c0.878,1.891,1.26,3.965,1.352,5.96c0.203,3.991-0.338,7.887,0.72,11.427
									c1.052,3.523,3.29,6.47,4.41,9.812c1.201,3.377,0.675,6.865,0.165,9.953c-0.517,3.109-1.036,6.136-0.385,8.888
									c0.582,2.78,2.535,4.799,3.767,7.009c0.641,1.096,1.099,2.282,1.262,3.464c0.174,1.178,0.158,2.313,0.198,3.385
									c0.048,1.065,0.102,2.11,0.424,3.007c0.319,0.895,0.948,1.603,1.591,2.185c1.344,1.124,2.776,1.816,4.036,2.307
									c1.269,0.486,2.393,0.757,3.307,0.917c0.915,0.171,1.625,0.199,2.101,0.215C72.31,445.102,72.557,445.111,72.557,445.111z"
									/>
							</g>
						</g>
					</g>
				</g>
				<g>
					<g>
						<g>
							<g>
								<path style="fill:#263238;" d="M40.587,323.147c0.011-0.002,0.044,0.104,0.098,0.313c0.059,0.248,0.132,0.554,0.223,0.932
									c0.198,0.815,0.434,2.046,0.815,3.584c0.397,1.533,1.325,3.271,2.115,5.411c0.822,2.123,1.653,4.583,2.416,7.346
									c0.773,2.76,1.454,5.826,2.166,9.11c0.735,3.278,1.467,6.793,3.252,10.114c0.838,1.684,1.782,3.389,2.529,5.252
									c0.766,1.864,1.174,3.898,1.455,5.94c0.473,4.098,1.201,8.259,2.157,12.518c2.025,8.483,3.953,16.562,5.709,23.919
									c1.799,7.332,3.421,13.939,4.788,19.508c1.33,5.519,2.41,10.003,3.172,13.166c0.351,1.517,0.628,2.716,0.83,3.588
									c0.081,0.38,0.146,0.688,0.199,0.937c0.041,0.212,0.057,0.322,0.046,0.325c-0.011,0.003-0.049-0.102-0.112-0.308
									c-0.07-0.245-0.157-0.548-0.264-0.921c-0.231-0.864-0.549-2.053-0.951-3.558c-0.811-3.15-1.961-7.617-3.377-13.115
									c-1.407-5.56-3.075-12.155-4.926-19.474c-1.773-7.359-3.72-15.44-5.764-23.926c-0.957-4.254-1.692-8.492-2.153-12.57
									c-0.276-2.028-0.664-3.989-1.4-5.796c-0.72-1.816-1.65-3.512-2.488-5.214c-1.799-3.384-2.536-7.006-3.242-10.27
									c-0.689-3.292-1.341-6.348-2.081-9.103c-0.729-2.757-1.525-5.213-2.31-7.338c-0.748-2.132-1.646-3.891-2.018-5.476
									c-0.349-1.575-0.539-2.793-0.697-3.623c-0.064-0.383-0.116-0.694-0.158-0.945C40.587,323.26,40.576,323.149,40.587,323.147z
									"/>
							</g>
						</g>
					</g>
				</g>
			</g>
			<g>
				<g>
					<g>
						<g>
							<path style="fill:#E8505B;" d="M70.733,445.133c-6.729-4.052-8.598-16.245-5.74-23.561
								c2.858-7.316,7.826-13.988,8.631-21.801c0.618-6.006-1.314-12.185,0.118-18.051c1.934-7.916,9.708-14.012,9.665-22.161
								c-0.024-4.572-2.601-8.889-2.368-13.455c0.286-5.601,4.611-10.021,7.302-14.941c4.119-7.531,4.438-16.461,5.88-24.923
								c1.442-8.462,4.721-17.515,12.252-21.635c1.068,7.197,2.932,12.133,2.283,21.872c-0.233,3.497-4.336,10.172-4.932,17.836
								c-0.356,4.581-0.612,9.169-0.918,13.754c-0.298,4.461-0.613,9.004-2.236,13.17c-1.244,3.193-3.23,6.088-4.159,9.386
								c-1.748,6.205,0.464,12.949-0.955,19.237c-1.202,5.328-4.92,9.898-5.705,15.303c-1.103,7.594,3.771,15.519,1.212,22.754
								c-1.27,3.59-4.245,6.462-5.106,10.172c-0.668,2.878,0.025,5.933-0.581,8.825c-0.977,4.659-9.894,8.231-14.644,7.916"/>
						</g>
					</g>
				</g>
				<g>
					<g>
						<g>
							<g>
								<path style="fill:#263238;" d="M104.573,291.732c0.011,0.002,0,0.139-0.032,0.406c-0.041,0.302-0.093,0.691-0.159,1.181
									c-0.161,1.038-0.344,2.562-0.706,4.532c-0.389,1.981-1.423,4.207-2.255,6.895c-0.877,2.679-1.751,5.77-2.529,9.232
									c-0.79,3.46-1.457,7.29-2.157,11.413c-0.723,4.092-1.463,8.615-3.535,12.899c-0.959,2.153-2.034,4.307-2.845,6.604
									c-0.83,2.289-1.22,4.753-1.466,7.288c-0.378,5.092-1.086,10.385-2.069,15.717c-2.129,10.643-4.156,20.78-6.001,30.008
									c-1.942,9.19-3.692,17.47-5.164,24.44c-1.487,6.919-2.693,12.533-3.538,16.465c-0.424,1.907-0.758,3.404-0.995,4.47
									c-0.114,0.48-0.205,0.863-0.275,1.159c-0.066,0.26-0.105,0.393-0.116,0.39c-0.011-0.002,0.006-0.139,0.049-0.404
									c0.054-0.3,0.123-0.686,0.211-1.172c0.208-1.071,0.5-2.577,0.873-4.495c0.795-3.942,1.931-9.57,3.331-16.508
									c1.433-6.978,3.135-15.268,5.025-24.469c1.828-9.225,3.837-19.359,5.946-29.999c0.983-5.338,1.687-10.554,2.076-15.666
									c0.25-2.549,0.656-5.088,1.515-7.434c0.835-2.346,1.925-4.509,2.884-6.644c2.059-4.221,2.799-8.638,3.551-12.744
									c0.723-4.115,1.419-7.957,2.241-11.423c0.81-3.469,1.72-6.566,2.634-9.244c0.873-2.696,1.938-4.903,2.355-6.833
									c0.395-1.934,0.624-3.473,0.826-4.497c0.093-0.485,0.167-0.871,0.224-1.17C104.528,291.864,104.561,291.73,104.573,291.732z
									"/>
							</g>
						</g>
					</g>
				</g>
			</g>
		</g>
	</g>
</g>
<g id="Chart">
	<g>
		<g>
			<rect x="402.469" y="287.759" style="fill:#E8505B;" width="6.969" height="22.517"/>
		</g>
		<g>
			<rect x="415.298" y="278.492" style="fill:#E8505B;" width="6.97" height="31.784"/>
		</g>
		<g>
			<rect x="428.952" y="274.164" style="fill:#E8505B;" width="6.97" height="36.112"/>
		</g>
		<g>
			<rect x="442.606" y="269.599" style="fill:#E8505B;" width="6.969" height="40.677"/>
		</g>
	</g>
</g>
<g id="Gears">
	<g>
		<g>
			<g>
				<g>
					<g>
						<path style="fill:#263238;" d="M167.519,316.972c0,0,0.571,0.04,1.498,0.469c0.907,0.422,2.192,1.344,2.985,3.022
							c0.386,0.829,0.65,1.833,0.609,2.919c-0.045,1.078-0.333,2.245-1.004,3.272c-0.319,0.521-0.735,1-1.219,1.418
							c-0.478,0.425-1.035,0.783-1.647,1.045c-1.214,0.552-2.654,0.696-4.035,0.399c-1.377-0.321-2.617-1.066-3.48-2.084
							c-0.442-0.498-0.792-1.061-1.044-1.649c-0.259-0.584-0.43-1.195-0.497-1.803c-0.167-1.216,0.071-2.394,0.49-3.388
							c0.427-0.999,1.095-1.794,1.798-2.379c1.434-1.178,2.99-1.462,3.99-1.457C166.985,316.764,167.519,316.972,167.519,316.972
							c-0.007,0.044-0.554-0.11-1.551-0.075c-0.978,0.037-2.472,0.356-3.828,1.512c-0.665,0.574-1.291,1.343-1.686,2.301
							c-0.387,0.953-0.603,2.076-0.434,3.227c0.067,0.575,0.233,1.153,0.482,1.705c0.241,0.556,0.575,1.086,0.995,1.556
							c0.819,0.959,1.99,1.659,3.29,1.963c1.306,0.28,2.662,0.148,3.812-0.37c0.58-0.245,1.109-0.582,1.563-0.982
							c0.461-0.393,0.857-0.844,1.164-1.336c0.644-0.968,0.928-2.076,0.985-3.103c0.052-1.035-0.186-1.997-0.542-2.8
							c-0.732-1.625-1.947-2.551-2.816-3.003C168.067,317.109,167.506,317.016,167.519,316.972z"/>
					</g>
				</g>
			</g>
		</g>
		<g>
			<g>
				<g>
					<g>
						<path style="fill:#263238;" d="M172.6,310.19c-0.004,0.003-0.009-0.072-0.014-0.222c-0.004-0.166-0.009-0.388-0.016-0.676
							c-0.008-0.62-0.021-1.512-0.037-2.671l0.045,0.056c-1.478-0.322-3.421-0.746-5.771-1.259l0.103-0.05
							c-0.46,0.978-0.971,2.066-1.518,3.229l-0.027,0.058l-0.065,0.003c-1.199,0.051-2.474,0.257-3.762,0.668l-0.069,0.022
							l-0.052-0.051c-0.791-0.783-1.647-1.63-2.537-2.512l0.161,0.017c-1.569,0.999-3.233,2.059-4.981,3.173l0.058-0.169
							c0.373,1.04,0.783,2.186,1.204,3.361l0.031,0.086l-0.062,0.067c-0.805,0.87-1.577,1.934-2.189,3.118l-0.044,0.084l-0.095,0
							c-1.106,0.004-2.326,0.008-3.568,0.013l0.158-0.127c-0.404,1.811-0.839,3.764-1.286,5.765l-0.092-0.19
							c1.004,0.476,2.107,0.998,3.225,1.528l0.094,0.045l0.004,0.105c0.047,1.192,0.256,2.489,0.656,3.747l0.032,0.101l-0.075,0.076
							c-0.789,0.793-1.649,1.658-2.518,2.531l0.024-0.221c1.002,1.579,2.075,3.272,3.163,4.988l-0.213-0.073
							c1.062-0.378,2.209-0.787,3.363-1.198l0.104-0.037l0.081,0.075c0.886,0.822,1.947,1.587,3.105,2.188l0.002,0.001l0.001,0.001
							c0.044,0.072-0.097-0.16,0.099,0.161v0.004v0.007l0,0.014v0.028l0,0.056l0,0.112l0,0.225l0.001,0.449l0.002,0.895
							c0.001,0.595,0.002,1.189,0.004,1.779l-0.142-0.177c1.948,0.437,3.87,0.869,5.764,1.294l-0.202,0.098
							c0.516-1.085,1.026-2.159,1.532-3.223l0.046-0.098l0.108-0.004c1.286-0.049,2.55-0.272,3.748-0.65l0.102-0.032l0.075,0.075
							c0.855,0.852,1.697,1.692,2.528,2.521l-0.215-0.024c1.704-1.077,3.369-2.13,4.992-3.156l-0.068,0.197
							c-0.405-1.142-0.802-2.263-1.193-3.365l-0.033-0.093l0.067-0.072c0.885-0.953,1.621-2.006,2.198-3.11l0.044-0.085l0.095,0
							c1.224-0.001,2.41-0.001,3.568-0.002l-0.147,0.118c0.459-2.026,0.893-3.939,1.305-5.761l0.076,0.156
							c-1.132-0.541-2.195-1.049-3.22-1.539l-0.072-0.034l-0.003-0.079c-0.051-1.362-0.287-2.614-0.644-3.763l-0.022-0.069
							l0.051-0.051c0.918-0.916,1.746-1.742,2.527-2.521l-0.015,0.133c-1.216-1.938-2.252-3.59-3.139-5.003l0.096,0.033
							c-1.346,0.469-2.451,0.855-3.371,1.176l-0.034,0.012l-0.026-0.024c-0.948-0.886-1.754-1.424-2.292-1.766
							c-0.264-0.159-0.466-0.281-0.614-0.37C172.66,310.233,172.596,310.193,172.6,310.19c0.004-0.002,0.079,0.031,0.217,0.098
							c0.141,0.072,0.354,0.182,0.63,0.345c0.551,0.326,1.372,0.852,2.34,1.731l-0.059-0.012c0.916-0.333,2.015-0.732,3.355-1.219
							l0.061-0.022l0.035,0.055c0.899,1.406,1.95,3.048,3.183,4.976l0.046,0.072l-0.061,0.061c-0.776,0.785-1.598,1.616-2.51,2.538
							l0.029-0.12c0.37,1.165,0.619,2.438,0.677,3.825l-0.074-0.113c1.027,0.485,2.092,0.987,3.227,1.523l0.1,0.047l-0.024,0.109
							c-0.405,1.823-0.831,3.738-1.282,5.766l-0.026,0.118l-0.121,0c-1.158,0.005-2.345,0.009-3.568,0.014l0.139-0.085
							c-0.586,1.13-1.335,2.208-2.238,3.186l0.034-0.165c0.393,1.101,0.794,2.221,1.201,3.362l0.045,0.126l-0.113,0.072
							c-1.621,1.029-3.283,2.085-4.986,3.166l-0.117,0.074l-0.098-0.098c-0.833-0.828-1.676-1.666-2.532-2.517l0.177,0.043
							c-1.227,0.388-2.522,0.619-3.84,0.67l0.154-0.102c-0.505,1.064-1.014,2.139-1.529,3.224l-0.062,0.13l-0.141-0.031
							c-1.894-0.424-3.816-0.855-5.764-1.291l-0.142-0.032l0-0.145c-0.001-0.591-0.003-1.184-0.004-1.779l-0.002-0.895l-0.001-0.449
							l-0.001-0.225l0-0.112l0-0.056l0-0.028v-0.014v-0.007v-0.004c0.196,0.321,0.054,0.089,0.097,0.16l-0.001,0l-0.001-0.001
							c-1.189-0.617-2.276-1.401-3.184-2.244l0.184,0.038c-1.155,0.411-2.302,0.819-3.364,1.197l-0.136,0.048l-0.077-0.122
							c-1.087-1.717-2.159-3.411-3.159-4.991l-0.076-0.121l0.1-0.101c0.87-0.873,1.732-1.736,2.521-2.528l-0.043,0.177
							c-0.408-1.29-0.62-2.619-0.666-3.839l0.098,0.149c-1.116-0.532-2.218-1.056-3.222-1.534l-0.122-0.058l0.03-0.132
							c0.451-2,0.891-3.952,1.3-5.762l0.029-0.127l0.129,0c1.242-0.001,2.462-0.001,3.568-0.002l-0.139,0.084
							c0.63-1.209,1.422-2.293,2.247-3.178l-0.031,0.152c-0.416-1.176-0.822-2.324-1.191-3.366l-0.038-0.108l0.097-0.061
							c1.753-1.105,3.423-2.158,4.996-3.149l0.088-0.055l0.073,0.073c0.885,0.887,1.737,1.739,2.523,2.526l-0.12-0.029
							c1.311-0.409,2.608-0.61,3.826-0.653l-0.092,0.061c0.556-1.159,1.076-2.242,1.544-3.217l0.032-0.067l0.071,0.017
							c2.344,0.54,4.282,0.986,5.756,1.326l0.046,0.011l-0.001,0.046c-0.011,1.148-0.019,2.033-0.025,2.647
							c-0.005,0.292-0.009,0.517-0.012,0.685C172.609,310.108,172.604,310.188,172.6,310.19z"/>
					</g>
				</g>
			</g>
		</g>
	</g>
	<g>
		<g>
			<g>
				<g>
					<path style="fill-rule:evenodd;clip-rule:evenodd;fill:#E8505B;" d="M161.718,265.331c1.279,0.666,2.446,1.494,3.48,2.451
						l3.718-1.324l3.495,5.516l-2.785,2.797c0.424,1.344,0.675,2.753,0.73,4.194l3.564,1.692l-1.43,6.371l-3.945,0.009
						c-0.666,1.279-1.494,2.446-2.452,3.48l1.324,3.719l-5.515,3.495l-2.797-2.785c-1.344,0.424-2.753,0.674-4.194,0.73
						l-1.692,3.564l-6.372-1.429l-0.008-3.945c-1.279-0.666-2.446-1.494-3.48-2.452l-3.719,1.324l-3.495-5.516l2.786-2.797
						c-0.424-1.344-0.674-2.752-0.73-4.194l-3.563-1.693l1.429-6.372l3.945-0.008c0.666-1.279,1.494-2.447,2.452-3.48l-1.324-3.719
						l5.515-3.495l2.797,2.785c1.344-0.424,2.752-0.674,4.194-0.73l1.692-3.564l6.371,1.429L161.718,265.331L161.718,265.331z
						 M156.1,272.828c-3.774-0.847-7.522,1.527-8.368,5.302c-0.847,3.775,1.527,7.521,5.302,8.368
						c3.775,0.847,7.522-1.527,8.368-5.302C162.249,277.421,159.875,273.675,156.1,272.828z"/>
				</g>
			</g>
		</g>
		<g style="opacity:0.8;">
			<g>
				<g>
					<path style="fill-rule:evenodd;clip-rule:evenodd;fill:#FFFFFF;" d="M161.718,265.331c1.279,0.666,2.446,1.494,3.48,2.451
						l3.718-1.324l3.495,5.516l-2.785,2.797c0.424,1.344,0.675,2.753,0.73,4.194l3.564,1.692l-1.43,6.371l-3.945,0.009
						c-0.666,1.279-1.494,2.446-2.452,3.48l1.324,3.719l-5.515,3.495l-2.797-2.785c-1.344,0.424-2.753,0.674-4.194,0.73
						l-1.692,3.564l-6.372-1.429l-0.008-3.945c-1.279-0.666-2.446-1.494-3.48-2.452l-3.719,1.324l-3.495-5.516l2.786-2.797
						c-0.424-1.344-0.674-2.752-0.73-4.194l-3.563-1.693l1.429-6.372l3.945-0.008c0.666-1.279,1.494-2.447,2.452-3.48l-1.324-3.719
						l5.515-3.495l2.797,2.785c1.344-0.424,2.752-0.674,4.194-0.73l1.692-3.564l6.371,1.429L161.718,265.331L161.718,265.331z
						 M156.1,272.828c-3.774-0.847-7.522,1.527-8.368,5.302c-0.847,3.775,1.527,7.521,5.302,8.368
						c3.775,0.847,7.522-1.527,8.368-5.302C162.249,277.421,159.875,273.675,156.1,272.828z"/>
				</g>
			</g>
		</g>
	</g>
	<g>
		<g>
			<g>
				<g>
					<path style="fill-rule:evenodd;clip-rule:evenodd;fill:#E8505B;" d="M138.678,302.865c0.744,0.388,1.424,0.87,2.026,1.427
						l2.164-0.771l2.034,3.211l-1.621,1.628c0.247,0.782,0.393,1.603,0.425,2.442l2.075,0.985l-0.832,3.709l-2.297,0.005
						c-0.387,0.745-0.87,1.424-1.427,2.026l0.77,2.165l-3.211,2.034l-1.628-1.621c-0.782,0.247-1.602,0.392-2.442,0.425
						l-0.985,2.075l-3.71-0.832l-0.005-2.297c-0.745-0.388-1.424-0.87-2.026-1.427l-2.165,0.77l-2.034-3.211l1.621-1.628
						c-0.247-0.782-0.392-1.602-0.425-2.441l-2.074-0.985l0.832-3.709l2.297-0.005c0.387-0.745,0.87-1.424,1.427-2.026l-0.771-2.165
						l3.211-2.034l1.628,1.621c0.782-0.247,1.602-0.392,2.442-0.425l0.985-2.074l3.709,0.832L138.678,302.865L138.678,302.865z
						 M135.408,307.23c-2.197-0.493-4.379,0.889-4.872,3.087c-0.493,2.197,0.889,4.378,3.087,4.871
						c2.198,0.493,4.378-0.889,4.871-3.086C138.987,309.904,137.605,307.723,135.408,307.23z"/>
				</g>
			</g>
		</g>
		<g style="opacity:0.4;">
			<g>
				<g>
					<path style="fill-rule:evenodd;clip-rule:evenodd;fill:#FFFFFF;" d="M138.678,302.865c0.744,0.388,1.424,0.87,2.026,1.427
						l2.164-0.771l2.034,3.211l-1.621,1.628c0.247,0.782,0.393,1.603,0.425,2.442l2.075,0.985l-0.832,3.709l-2.297,0.005
						c-0.387,0.745-0.87,1.424-1.427,2.026l0.77,2.165l-3.211,2.034l-1.628-1.621c-0.782,0.247-1.602,0.392-2.442,0.425
						l-0.985,2.075l-3.71-0.832l-0.005-2.297c-0.745-0.388-1.424-0.87-2.026-1.427l-2.165,0.77l-2.034-3.211l1.621-1.628
						c-0.247-0.782-0.392-1.602-0.425-2.441l-2.074-0.985l0.832-3.709l2.297-0.005c0.387-0.745,0.87-1.424,1.427-2.026l-0.771-2.165
						l3.211-2.034l1.628,1.621c0.782-0.247,1.602-0.392,2.442-0.425l0.985-2.074l3.709,0.832L138.678,302.865L138.678,302.865z
						 M135.408,307.23c-2.197-0.493-4.379,0.889-4.872,3.087c-0.493,2.197,0.889,4.378,3.087,4.871
						c2.198,0.493,4.378-0.889,4.871-3.086C138.987,309.904,137.605,307.723,135.408,307.23z"/>
				</g>
			</g>
		</g>
	</g>
</g>
<g id="Character">
	<g>
		<g>
			<g>
				<path style="fill:#263238;" d="M359.533,266.065c4.209-1.093,7.335-5.405,7.064-9.745c-0.122-1.957-0.85-3.862-0.766-5.82
					c0.13-3.041,2.148-5.611,3.666-8.248c1.518-2.638,2.537-6.116,0.768-8.592c-1.148-1.606-3.175-2.33-4.566-3.731
					c-1.361-1.371-2.007-3.273-2.736-5.062c-0.729-1.789-1.674-3.635-3.353-4.591s-4.254-0.532-4.936,1.276"/>
				<path style="fill:#263238;" d="M341.367,216.736c2.996-1.902,3.719-6.313,2.096-9.468c-1.623-3.155-5.068-5.071-8.571-5.636
					c-5.07-0.818-10.491,0.979-14.069,4.663c-1.934,1.991-3.5,4.588-6.121,5.5c-2.304,0.802-4.853,0.078-7.273,0.391
					c-3.243,0.42-6.023,2.726-7.686,5.542c-1.663,2.816-2.349,6.1-2.733,9.348c-0.353,2.981-0.585,6.252-2.653,8.427
					c-2.017,2.121-5.202,2.571-7.71,4.08c-4.718,2.839-6.247,9.872-3.134,14.415c0.993,1.448,2.418,2.776,2.533,4.528
					c0.105,1.6-0.929,3.024-1.413,4.552c-1.246,3.934,1.974,8.609,6.095,8.845c2.08,0.12,4.309-0.691,6.173,0.238
					c1.852,0.924,2.542,3.158,3.726,4.855c2.33,3.338,7.205,4.597,10.86,2.805c1.53-0.75,2.975-1.989,4.675-1.875
					c1.697,0.114,3.033,1.563,4.702,1.886c2.186,0.423,4.261-1.187,5.561-2.995c1.299-1.807,2.205-3.937,3.869-5.417
					c2.178-1.937,5.238-2.416,7.994-3.365c6.083-2.095,11.167-6.923,13.572-12.89c2.406-5.967,2.092-12.971-0.838-18.699"/>
				<g>
					<g>
						<g>
							<g>
								<g>
									<g>
										<g>
											<g>
												<g>
													<g>
														<g>
															<g>
																<g>
																	<path style="fill:#FFBE9D;" d="M347.947,220.67c2.472,0.267,4.328,2.381,4.274,4.867l0,0l-2.857,64.672
																		c-0.119,7.638-11.284,11.93-19.462,11.74l0,0c-8.258-0.192-8.525-4.242-8.628-11.509
																		c-0.173-12.14-0.158-16.698-0.163-16.628c0,0-10.431-1.756-12.563-15.375c-1.06-6.773-0.695-17.874-0.104-26.948
																		c0.533-8.167,5.967-18.176,14.103-17.297L347.947,220.67z"/>
																</g>
															</g>
														</g>
													</g>
												</g>
											</g>
											<g>
												<g>
													<g>
														<g>
															<g>
																<g>
																	<g>
																		<path style="fill:#263238;" d="M311.441,240.302c-0.035,0.922,0.718,1.712,1.68,1.765
																			c0.96,0.054,1.769-0.648,1.803-1.57c0.034-0.922-0.718-1.713-1.678-1.766
																			C312.284,238.677,311.475,239.38,311.441,240.302z"/>
																	</g>
																</g>
															</g>
														</g>
													</g>
												</g>
												<g>
													<g>
														<g>
															<g>
																<g>
																	<g>
																		<g>
																			<path style="fill:#263238;" d="M310.84,237.268c0.216,0.228,1.541-0.748,3.42-0.739
																				c1.877-0.018,3.254,0.952,3.458,0.722c0.1-0.102-0.12-0.513-0.719-0.952c-0.59-0.436-1.597-0.862-2.768-0.86
																				c-1.17,0.004-2.156,0.433-2.723,0.872C310.93,236.755,310.734,237.166,310.84,237.268z"/>
																		</g>
																	</g>
																</g>
															</g>
														</g>
													</g>
												</g>
											</g>
											<g>
												<g>
													<g>
														<g>
															<g>
																<g>
																	<g>
																		<path style="fill:#263238;" d="M330.17,240.302c-0.035,0.922,0.717,1.712,1.68,1.765
																			c0.96,0.054,1.769-0.648,1.803-1.57c0.035-0.922-0.718-1.713-1.678-1.766
																			C331.013,238.677,330.204,239.38,330.17,240.302z"/>
																	</g>
																</g>
															</g>
														</g>
													</g>
												</g>
												<g>
													<g>
														<g>
															<g>
																<g>
																	<g>
																		<g>
																			<path style="fill:#263238;" d="M329.309,237.66c0.216,0.228,1.543-0.748,3.421-0.739
																				c1.877-0.018,3.254,0.952,3.458,0.722c0.1-0.102-0.117-0.513-0.719-0.951c-0.59-0.437-1.597-0.862-2.768-0.86
																				c-1.17,0.004-2.156,0.433-2.723,0.872C329.401,237.146,329.203,237.557,329.309,237.66z"/>
																		</g>
																	</g>
																</g>
															</g>
														</g>
													</g>
												</g>
											</g>
											<g>
												<g>
													<g>
														<g>
															<g>
																<g>
																	<g>
																		<path style="fill:#263238;" d="M322.459,251.579c0.009-0.107-1.158-0.311-3.051-0.557
																			c-0.48-0.051-0.934-0.147-1.014-0.474c-0.112-0.347,0.09-0.864,0.323-1.422c0.454-1.16,0.929-2.376,1.427-3.65
																			c1.982-5.197,3.418-9.471,3.208-9.549c-0.21-0.078-1.987,4.071-3.969,9.269c-0.477,1.282-0.933,2.503-1.367,3.672
																			c-0.183,0.545-0.496,1.163-0.253,1.883c0.128,0.359,0.48,0.62,0.788,0.703c0.307,0.094,0.577,0.1,0.815,0.115
																			C321.27,251.675,322.451,251.686,322.459,251.579z"/>
																	</g>
																</g>
															</g>
														</g>
													</g>
												</g>
											</g>
											<g>
												<g>
													<g>
														<g>
															<g>
																<g>
																	<path style="fill:#EB996E;" d="M321.112,273.811c0,0,9.158,0.611,18.245-4.824c0,0-4.621,9.599-18.245,8.295
																		V273.811z"/>
																</g>
															</g>
														</g>
													</g>
												</g>
											</g>
											<g>
												<g>
													<g>
														<g>
															<g>
																<g>
																	<path style="fill:#E8505B;" d="M323.243,256.109c0.678-0.892,1.863-1.38,3.038-1.251
																		c0.815,0.089,1.638,0.484,2.132,1.15c0.494,0.665,0.596,1.608,0.144,2.24c-0.509,0.712-1.569,0.874-2.465,0.617
																		c-0.896-0.257-1.667-0.849-2.398-1.439c-0.202-0.163-0.409-0.333-0.535-0.557
																		c-0.126-0.223-0.153-0.515,0.004-0.699"/>
																</g>
															</g>
														</g>
													</g>
												</g>
											</g>
											<g>
												<g>
													<g>
														<g>
															<g>
																<g>
																	<g>
																		<path style="fill:#263238;" d="M327.986,252.891c-0.306-0.018-0.314,2.021-2.063,3.465
																			c-1.745,1.448-3.919,1.214-3.936,1.5c-0.029,0.128,0.483,0.397,1.401,0.424c0.9,0.033,2.215-0.253,3.285-1.137
																			c1.067-0.885,1.527-2.069,1.599-2.905C328.351,253.385,328.125,252.88,327.986,252.891z"/>
																	</g>
																</g>
															</g>
														</g>
													</g>
												</g>
											</g>
										</g>
									</g>
								</g>
								<g>
									<g>
										<g>
											<g>
												<g>
													<g>
														<path style="fill:#263238;" d="M328.471,234.368c0.184,0.511,2.061,0.273,4.264,0.544
															c2.21,0.226,3.986,0.876,4.279,0.418c0.131-0.219-0.178-0.7-0.895-1.196c-0.711-0.495-1.847-0.967-3.17-1.118
															c-1.323-0.148-2.535,0.06-3.339,0.385C328.8,233.725,328.391,234.125,328.471,234.368z"/>
													</g>
												</g>
											</g>
										</g>
									</g>
								</g>
								<g>
									<g>
										<g>
											<g>
												<g>
													<g>
														<path style="fill:#263238;" d="M311.543,231.832c0.33,0.427,1.625-0.013,3.182-0.03
															c1.556-0.072,2.874,0.293,3.178-0.153c0.133-0.217-0.073-0.644-0.648-1.05c-0.567-0.404-1.515-0.735-2.585-0.705
															c-1.069,0.032-1.997,0.416-2.539,0.852C311.579,231.184,311.398,231.623,311.543,231.832z"/>
													</g>
												</g>
											</g>
										</g>
									</g>
								</g>
							</g>
						</g>
					</g>
				</g>
				<path style="fill:#263238;" d="M339.01,216.242c3.119-2.098,7.159-3.064,10.792-2.021c3.633,1.043,6.643,4.316,6.765,8.016
					c0.08,2.405-0.959,4.962,0.109,7.131c1.016,2.064,3.519,2.904,5.294,4.4c2.787,2.349,3.611,6.648,1.881,9.824
					c-1.486,2.729-4.612,4.729-4.874,7.811c-0.246,2.899,2.197,5.346,2.792,8.196c0.656,3.145-1.085,6.397-3.579,8.483
					c-2.494,2.086-5.646,3.235-8.727,4.344c-2.403,0.865-4.978,1.743-7.472,1.177c-2.972-0.674-5.192-3.43-5.6-6.386
					c-0.408-2.956,0.81-5.988,2.835-8.219c1.749-1.926,4.201-3.562,4.621-6.104c0.654-3.959-4.063-7.213-3.772-11.213
					c0.15-2.063,1.604-3.771,2.816-5.467c1.211-1.696,2.268-3.83,1.524-5.767c-0.966-2.517-4.275-3.173-6.273-5.019
					c-1.671-1.544-2.345-4.042-1.67-6.191c0.675-2.149,2.666-3.847,4.936-4.208"/>
				<path style="fill:#263238;" d="M340.474,213.172c0.01,2.725-1.246,5.429-3.336,7.178c-2.09,1.749-4.973,2.51-7.654,2.02
					c-2.08-0.38-4.36-1.432-6.16-0.323c-1.894,1.166-1.972,4.02-3.652,5.478c-2.4,2.083-6.217,0.129-9.264,1.032
					c-2.353,0.698-3.823,2.947-5.386,4.839c-1.563,1.892-3.905,3.691-6.258,2.993c0.15-2.115,0.304-4.253,0.934-6.278
					c0.63-2.025,1.788-3.958,3.565-5.115c0.974-0.634,2.105-1.021,3.009-1.751c1.953-1.577,2.406-4.321,3.612-6.523
					c1.555-2.838,4.558-4.83,7.777-5.159c2.678-0.274,5.438,0.53,8.049-0.128c1.93-0.486,3.616-1.739,5.571-2.111
					c3.808-0.724,7.347,2.009,10.108,4.729"/>
			</g>
			<g>
				<path style="fill:#455A64;" d="M365.343,245.719c-0.067-0.021,0.405-0.517,0.302-1.57c-0.085-1.028-0.943-2.493-2.741-3.132
					c-0.869-0.351-1.89-0.556-2.993-0.806c-1.096-0.263-2.319-0.586-3.39-1.397c-1.104-0.794-1.696-2.236-1.764-3.643
					c-0.088-1.42,0.137-2.848,0.21-4.286c0.029-0.718,0.011-1.423-0.107-2.095c-0.138-0.666-0.415-1.272-0.803-1.788
					c-0.818-1.02-2.102-1.474-3.278-1.881c-1.196-0.385-2.368-0.825-3.339-1.44c-0.982-0.596-1.799-1.298-2.46-2.01
					c-1.333-1.426-2.034-2.871-2.405-3.879c-0.185-0.508-0.297-0.913-0.349-1.192c-0.057-0.278-0.078-0.425-0.061-0.429
					c0.047-0.012,0.182,0.568,0.598,1.546c0.421,0.968,1.155,2.349,2.482,3.7c1.308,1.379,3.242,2.578,5.686,3.249
					c1.182,0.401,2.568,0.851,3.522,2.014c0.448,0.583,0.762,1.276,0.914,2.008c0.132,0.733,0.149,1.478,0.119,2.22
					c-0.078,1.478-0.3,2.89-0.222,4.228c0.067,1.328,0.574,2.572,1.55,3.298c0.956,0.744,2.122,1.082,3.195,1.356
					c1.087,0.266,2.13,0.495,3.033,0.886c0.9,0.377,1.66,0.929,2.111,1.584c0.461,0.644,0.66,1.319,0.692,1.871
					c0.028,0.557-0.11,0.982-0.246,1.234C365.466,245.622,365.35,245.725,365.343,245.719z"/>
			</g>
			<g>
				<path style="fill:#455A64;" d="M285.146,254.216c-0.004,0.008-0.078-0.027-0.223-0.105c-0.142-0.078-0.336-0.241-0.511-0.515
					c-0.341-0.559-0.36-1.638,0.278-2.689c0.304-0.525,0.791-1.054,1.458-1.395c0.65-0.353,1.403-0.622,2.189-0.923
					c0.779-0.306,1.62-0.658,2.29-1.298c0.673-0.637,1.094-1.562,1.309-2.583c0.229-1.022,0.297-2.138,0.482-3.301
					c0.174-1.154,0.542-2.406,1.351-3.432c1.586-2.09,4.184-3.2,6.122-5.158c0.954-0.986,1.671-2.23,2.127-3.607
					c0.473-1.372,0.734-2.849,0.963-4.36c0.421-2.99,0.846-6.342,2.859-9.079c0.982-1.357,2.48-2.364,4.108-2.654
					c1.625-0.321,3.228-0.083,4.741,0.118c1.517,0.211,3.008,0.437,4.43,0.259c1.426-0.16,2.693-0.85,3.619-1.869
					c1.859-2.004,2.926-4.703,5.21-6.084c2.21-1.366,4.793-1.539,6.879-0.948c2.12,0.592,3.68,2.032,4.527,3.52
					c0.879,1.493,1.155,3,1.176,4.199c0.025,1.21-0.216,2.134-0.435,2.723c-0.217,0.594-0.401,0.874-0.401,0.874
					c-0.027-0.012,0.12-0.31,0.301-0.906c0.184-0.592,0.388-1.505,0.333-2.685c-0.051-1.169-0.352-2.629-1.223-4.055
					c-0.845-1.423-2.347-2.77-4.377-3.314c-1.998-0.545-4.471-0.35-6.548,0.958c-1.032,0.655-1.873,1.623-2.628,2.711
					c-0.769,1.077-1.474,2.278-2.466,3.338c-0.495,0.526-1.072,1.008-1.739,1.363c-0.673,0.332-1.404,0.591-2.165,0.669
					c-1.52,0.194-3.05-0.042-4.563-0.246c-1.511-0.2-3.066-0.418-4.571-0.116c-1.504,0.273-2.864,1.182-3.793,2.459
					c-0.944,1.269-1.539,2.764-1.946,4.268c-0.409,1.508-0.588,3.053-0.825,4.575c-0.234,1.519-0.502,3.024-0.997,4.446
					c-0.476,1.423-1.239,2.743-2.254,3.78c-2.053,2.035-4.626,3.12-6.122,5.085c-0.763,0.956-1.113,2.103-1.298,3.236
					c-0.193,1.134-0.271,2.258-0.52,3.317c-0.232,1.054-0.698,2.059-1.44,2.741c-0.74,0.686-1.624,1.033-2.415,1.33
					c-0.799,0.292-1.541,0.542-2.176,0.87c-0.64,0.312-1.094,0.785-1.402,1.281c-0.633,0.987-0.646,2.001-0.358,2.534
					C284.811,254.079,285.176,254.181,285.146,254.216z"/>
			</g>
		</g>
		<g>
			<path style="fill:#E8505B;" d="M251.735,347.951l24.152-2.214c0,0,14.863-39.147,33.185-48.639l11.868,20.731l-25.405,47.735
				h-49.605L251.735,347.951z"/>
			<path style="opacity:0.3;" d="M251.735,347.951l24.152-2.214c0,0,14.863-39.147,33.185-48.639l11.868,20.731l-25.405,47.735
				h-49.605L251.735,347.951z"/>
			<g>
				<path style="fill:#FAFAFA;" d="M261.278,359.006c-0.124-0.074,0.788-1.825,2.035-3.912c1.248-2.087,2.359-3.719,2.482-3.645
					c0.123,0.074-0.788,1.825-2.035,3.912C262.513,357.448,261.401,359.08,261.278,359.006z"/>
			</g>
			<g>
				<path style="fill:#FAFAFA;" d="M278.389,358.532c-0.112,0.09-1.433-1.367-2.951-3.255c-1.518-1.888-2.657-3.492-2.545-3.582
					c0.112-0.09,1.433,1.367,2.951,3.255C277.361,356.838,278.501,358.442,278.389,358.532z"/>
			</g>
			<g>
				<path style="fill:#FAFAFA;" d="M281.36,349.555c-0.144,0-0.26-1.418-0.26-3.167c0-1.749,0.117-3.167,0.26-3.167
					s0.26,1.417,0.26,3.167C281.62,348.137,281.504,349.555,281.36,349.555z"/>
			</g>
			<g>
				<path style="fill:#FAFAFA;" d="M272.86,363.555c-0.079,0.121-1.113-0.416-2.309-1.199c-1.197-0.783-2.103-1.514-2.024-1.635
					c0.079-0.12,1.112,0.416,2.309,1.199C272.032,362.703,272.939,363.435,272.86,363.555z"/>
			</g>
			<g>
				<path style="fill:#FAFAFA;" d="M286.727,327.57c0.131,0.059-0.616,2.012-1.668,4.361c-1.053,2.35-2.013,4.207-2.144,4.148
					c-0.131-0.059,0.616-2.011,1.669-4.361C285.636,329.369,286.596,327.511,286.727,327.57z"/>
			</g>
			<g>
				<path style="fill:#FAFAFA;" d="M296.516,311.707c0.087,0.115-0.776,0.915-1.928,1.788c-1.152,0.873-2.156,1.488-2.243,1.373
					c-0.087-0.115,0.776-0.915,1.928-1.788C295.425,312.207,296.429,311.593,296.516,311.707z"/>
			</g>
			<path style="fill:#E8505B;" d="M332.641,362.469l12.455-50.307c2.169-8.759,10.766-14.329,19.647-12.729l0,0
				c9.141,1.647,15.299,10.286,13.875,19.464l-7.626,49.168c-1.874,10.302-10.065,18.288-20.411,19.903l-9.901,1.545
				L332.641,362.469z"/>
			<g>
				<path style="fill:#263238;" d="M371.895,296.183c-0.064,0.12-1.395-1.509-4.444-2.233c-1.498-0.347-3.38-0.435-5.361,0.037
					c-1.981,0.464-4.015,1.533-5.827,3.039c-3.651,3.06-5.638,7.036-6.987,9.822c-0.668,1.415-1.175,2.578-1.538,3.377
					c-0.361,0.8-0.575,1.237-0.608,1.223c-0.033-0.013,0.117-0.476,0.421-1.3c0.305-0.823,0.762-2.01,1.39-3.452
					c0.635-1.438,1.445-3.138,2.561-4.91c1.109-1.77,2.564-3.598,4.428-5.159c1.866-1.551,3.981-2.648,6.052-3.106
					c2.069-0.465,4.02-0.333,5.559,0.073c1.545,0.417,2.681,1.079,3.375,1.629c0.346,0.279,0.602,0.508,0.756,0.685
					C371.831,296.076,371.908,296.17,371.895,296.183z"/>
			</g>
			<g>
				<path style="fill:#263238;" d="M301.329,307.503c0.013,0.012-0.107,0.173-0.348,0.467c-0.28,0.335-0.633,0.758-1.066,1.276
					c-0.922,1.11-2.238,2.732-3.737,4.827c-2.978,4.165-6.73,10.386-8.504,18.053c-1.738,7.671-1.823,14.854-2.118,19.999
					c-0.124,2.58-0.246,4.668-0.356,6.109c-0.06,0.673-0.108,1.222-0.147,1.658c-0.04,0.379-0.07,0.577-0.088,0.576
					c-0.018-0.001-0.023-0.202-0.017-0.582c0.013-0.437,0.029-0.987,0.049-1.663c0.047-1.514,0.112-3.585,0.191-6.113
					c0.202-5.145,0.225-12.355,1.979-20.102c1.799-7.769,5.645-14.023,8.714-18.153c1.546-2.079,2.91-3.671,3.882-4.743
					c0.481-0.54,0.878-0.939,1.141-1.213C301.17,307.627,301.316,307.491,301.329,307.503z"/>
			</g>
			<path style="fill:#E8505B;" d="M381.15,307.394c-1.366-8.995-6.335-11.155-11.481-13.956c-1.682-0.916-9.793-2.998-16.223-4.565
				c-0.614-3.898-1.715-10.87-1.957-12.343c-0.339-2.069-32.757,3.103-33.167,3.879c-0.272,0.514-1.018,8.593-1.491,13.976
				l-7.761,2.713l-10.13,12.879l-5.272,7.487c-3.057,4.34-5.376,9.191-6.53,14.373c-1.277,5.734-1.454,11.329-1.454,17.42
				l-1.566,33.026l67.826,19.179l5.251-33.455l17.498-23.819C376.19,334.555,382.831,318.455,381.15,307.394z"/>
			<g>
				<path style="fill:#263238;" d="M323.263,295.424c-0.072,0.008-0.238-0.868-0.451-2.291c-0.212-1.423-0.47-3.394-0.723-5.574
					c-0.118-1.079-0.23-2.106-0.336-3.076c-0.087-0.944-0.207-1.795-0.18-2.543c0.021-0.742,0.226-1.35,0.483-1.69
					c0.262-0.34,0.486-0.432,0.5-0.41c0.028,0.034-0.145,0.181-0.328,0.517c-0.179,0.339-0.311,0.886-0.287,1.585
					c0.018,0.693,0.174,1.539,0.288,2.485c0.119,0.968,0.245,1.994,0.377,3.071c0.253,2.18,0.452,4.157,0.571,5.591
					S323.335,295.416,323.263,295.424z"/>
			</g>
			<g>
				<path style="fill:#263238;" d="M331.911,293.38c-0.064,0.019-0.372-0.772-0.722-2.097c-0.351-1.323-0.721-3.187-0.915-5.271
					c-0.191-2.085-0.169-3.985-0.066-5.35c0.102-1.366,0.26-2.2,0.326-2.194c0.16,0.013-0.133,3.376,0.259,7.496
					C331.162,290.085,332.067,293.338,331.911,293.38z"/>
			</g>
			<g>
				<path style="fill:#263238;" d="M348.006,291.041c-0.172-0.018,0.547-3.379-0.184-7.459c-0.684-4.09-2.492-7.012-2.337-7.087
					c0.051-0.032,0.569,0.649,1.189,1.882c0.621,1.229,1.298,3.034,1.661,5.116c0.358,2.082,0.328,4.009,0.157,5.375
					C348.323,290.238,348.065,291.054,348.006,291.041z"/>
			</g>
			<g>
				<path style="fill:#FAFAFA;" d="M301.949,320.456c-0.118-0.076,1.006-2.006,2.657-4.203c1.648-2.201,3.185-3.819,3.292-3.727
					c0.112,0.096-1.238,1.854-2.875,4.039C303.382,318.748,302.072,320.537,301.949,320.456z"/>
			</g>
			<g>
				<path style="fill:#FAFAFA;" d="M317.226,308.03c-0.114,0.087-1.322-1.301-2.697-3.099c-1.375-1.799-2.397-3.329-2.283-3.416
					c0.114-0.087,1.322,1.3,2.697,3.1C316.318,306.414,317.34,307.943,317.226,308.03z"/>
			</g>
			<g>
				<path style="fill:#FAFAFA;" d="M333.193,300.222c0.094,0.115-1.405,1.483-3.19,3.228c-1.791,1.741-3.197,3.203-3.31,3.106
					c-0.106-0.09,1.137-1.72,2.946-3.479C331.444,301.314,333.106,300.113,333.193,300.222z"/>
			</g>
			<g>
				<path style="fill:#FAFAFA;" d="M328.709,290.705c-0.096,0.107-1.213-0.747-2.493-1.907c-1.281-1.16-2.24-2.186-2.144-2.293
					c0.096-0.107,1.213,0.747,2.493,1.907C327.845,289.571,328.805,290.598,328.709,290.705z"/>
			</g>
			<g>
				<path style="fill:#FAFAFA;" d="M342.698,283.243c0.03,0.141-1.477,0.583-3.366,0.987c-1.889,0.405-3.445,0.619-3.475,0.478
					c-0.03-0.141,1.477-0.582,3.366-0.987C341.112,283.316,342.668,283.102,342.698,283.243z"/>
			</g>
			<g>
				<path style="fill:#FAFAFA;" d="M345.497,305.39c-0.144,0.007-0.339-1.554-0.437-3.486c-0.098-1.933-0.06-3.506,0.083-3.513
					c0.144-0.007,0.339,1.553,0.437,3.487C345.677,303.81,345.64,305.383,345.497,305.39z"/>
			</g>
			<g>
				<path style="fill:#FAFAFA;" d="M340.395,316.042c-0.135,0.049-0.919-1.762-1.752-4.044c-0.832-2.284-1.397-4.174-1.262-4.223
					c0.135-0.049,0.919,1.761,1.752,4.045C339.965,314.102,340.531,315.993,340.395,316.042z"/>
			</g>
			<g>
				<path style="fill:#FAFAFA;" d="M326.54,323.55c-0.134,0.052-0.996-1.843-1.924-4.233c-0.929-2.391-1.573-4.37-1.439-4.422
					c0.134-0.052,0.995,1.843,1.924,4.233C326.03,321.518,326.674,323.498,326.54,323.55z"/>
			</g>
			<g>
				<path style="fill:#FAFAFA;" d="M313.496,332.061c-0.141,0.029-0.644-1.848-1.124-4.19c-0.48-2.344-0.754-4.266-0.614-4.295
					c0.141-0.029,0.644,1.847,1.124,4.191C313.362,330.109,313.637,332.032,313.496,332.061z"/>
			</g>
			<g>
				<path style="fill:#FAFAFA;" d="M298.001,332.401c-0.129,0.063-1.067-1.596-2.095-3.706c-1.028-2.11-1.756-3.871-1.627-3.934
					c0.129-0.063,1.067,1.596,2.095,3.706C297.402,330.576,298.13,332.338,298.001,332.401z"/>
			</g>
			<g>
				<path style="fill:#FAFAFA;" d="M297.667,342.335c0.064,0.129-1.755,1.157-4.061,2.297c-2.307,1.139-4.229,1.959-4.292,1.83
					c-0.064-0.129,1.754-1.157,4.062-2.297C295.682,343.026,297.603,342.206,297.667,342.335z"/>
			</g>
			<g>
				<path style="fill:#FAFAFA;" d="M297.86,358.055c-0.13,0.05-0.857-1.551-1.411-3.64c-0.56-2.088-0.726-3.839-0.589-3.86
					c0.146-0.024,0.539,1.665,1.092,3.726C297.498,356.342,297.999,358.003,297.86,358.055z"/>
			</g>
			<g>
				<path style="fill:#FAFAFA;" d="M294.655,369.097c-0.097,0.106-1.559-1.074-3.265-2.635c-1.706-1.562-3.01-2.913-2.913-3.019
					c0.097-0.106,1.559,1.074,3.265,2.635C293.447,367.639,294.752,368.991,294.655,369.097z"/>
			</g>
			<g>
				<path style="fill:#FAFAFA;" d="M315.072,361.563c0.038,0.15-2.258,0.805-4.938,1.987c-2.687,1.169-4.725,2.413-4.809,2.283
					c-0.078-0.108,1.865-1.569,4.6-2.76C312.654,361.87,315.046,361.432,315.072,361.563z"/>
			</g>
			<g>
				<path style="fill:#FAFAFA;" d="M309.1,356.087c-0.136,0.047-0.793-1.486-1.468-3.424c-0.675-1.939-1.112-3.548-0.977-3.595
					s0.793,1.486,1.469,3.424C308.799,354.43,309.236,356.04,309.1,356.087z"/>
			</g>
			<g>
				<path style="fill:#FAFAFA;" d="M321.214,342.568c0.122,0.077-1.104,2.24-2.738,4.832c-1.634,2.592-3.057,4.631-3.178,4.555
					c-0.122-0.077,1.104-2.24,2.738-4.832C319.669,344.53,321.092,342.491,321.214,342.568z"/>
			</g>
			<g>
				<path style="fill:#FAFAFA;" d="M334.225,343.865c-0.109,0.084-1.724-1.867-3.323-4.541c-1.607-2.671-2.568-5.013-2.443-5.07
					c0.136-0.064,1.298,2.158,2.889,4.802C332.932,341.704,334.346,343.776,334.225,343.865z"/>
			</g>
			<g>
				<path style="fill:#FAFAFA;" d="M342.021,331.023c0.027,0.135-1.664,0.574-3.807,0.676c-2.143,0.11-3.869-0.159-3.855-0.296
					c0.012-0.149,1.726-0.116,3.83-0.224C340.291,331.079,341.995,330.876,342.021,331.023z"/>
			</g>
			<g>
				<path style="fill:#FAFAFA;" d="M360.529,316.392c0.062,0.13-2.133,1.305-4.901,2.624c-2.769,1.319-5.064,2.283-5.126,2.154
					c-0.062-0.13,2.132-1.304,4.902-2.624C358.172,317.227,360.467,316.263,360.529,316.392z"/>
			</g>
			<g>
				<path style="fill:#FAFAFA;" d="M361.76,307.088c-0.129-0.064,0.656-1.91,1.753-4.122c1.097-2.213,2.091-3.955,2.22-3.891
					c0.129,0.064-0.656,1.909-1.753,4.123C362.883,305.41,361.889,307.152,361.76,307.088z"/>
			</g>
			<g>
				<path style="fill:#FAFAFA;" d="M373.523,314.389c-0.145,0.033-0.728-2.031-1.519-4.549c-0.786-2.521-1.482-4.549-1.345-4.605
					c0.129-0.053,1.049,1.906,1.842,4.449C373.299,312.225,373.66,314.359,373.523,314.389z"/>
			</g>
			<g>
				<path style="fill:#FAFAFA;" d="M375.365,324.07c0.049,0.129-1.881,0.965-4.388,1.604c-2.506,0.646-4.6,0.842-4.619,0.705
					c-0.023-0.147,2.013-0.57,4.49-1.209C373.326,324.538,375.314,323.93,375.365,324.07z"/>
			</g>
			<g>
				<path style="fill:#FAFAFA;" d="M355.213,335.892c-0.151-0.031,0.277-2.465,0.399-5.494c0.136-3.03-0.084-5.491,0.069-5.509
					c0.131-0.022,0.589,2.449,0.451,5.531C356.008,333.502,355.342,335.926,355.213,335.892z"/>
			</g>
			<g>
				<path style="fill:#FAFAFA;" d="M351.193,348.055c-0.092,0.101-1.851-1.392-3.659-3.577c-1.815-2.181-2.958-4.184-2.841-4.256
					c0.126-0.082,1.45,1.771,3.242,3.923C349.72,346.303,351.298,347.946,351.193,348.055z"/>
			</g>
			<g>
				<path style="fill:#FAFAFA;" d="M371.404,345.495c0.055,0.133-1.812,1.039-4.17,2.024c-2.359,0.985-4.316,1.676-4.371,1.543
					c-0.055-0.133,1.812-1.039,4.171-2.024C369.392,346.053,371.349,345.362,371.404,345.495z"/>
			</g>
			<g>
				<path style="fill:#FAFAFA;" d="M364.163,368.388c-0.144-0.001-0.236-2.465-0.205-5.503c0.031-3.038,0.172-5.499,0.316-5.498
					c0.144,0.001,0.236,2.465,0.205,5.503C364.448,365.928,364.306,368.389,364.163,368.388z"/>
			</g>
			<g>
				<path style="fill:#FAFAFA;" d="M348.647,367.074c-0.136-0.018,0.114-2.581,0.888-5.653c0.767-3.075,1.756-5.452,1.884-5.403
					c0.142,0.05-0.62,2.484-1.379,5.53C349.273,364.591,348.796,367.096,348.647,367.074z"/>
			</g>
			<g>
				<path style="fill:#FAFAFA;" d="M349.362,373.081c0.009,0.151-2.485,0.389-5.524,0.895c-3.041,0.497-5.478,1.073-5.519,0.928
					c-0.039-0.131,2.36-0.939,5.434-1.442C346.825,372.95,349.357,372.944,349.362,373.081z"/>
			</g>
			<g>
				<path style="fill:#FAFAFA;" d="M332.201,369.229c-0.104-0.1,1.224-1.642,2.965-3.445c1.741-1.803,3.236-3.183,3.34-3.083
					c0.103,0.1-1.224,1.642-2.965,3.445C333.8,367.949,332.305,369.329,332.201,369.229z"/>
			</g>
			<g>
				<path style="fill:#FAFAFA;" d="M321.087,380.043c-0.148,0.029-0.592-1.77-1.351-3.913c-0.75-2.147-1.531-3.827-1.397-3.897
					c0.119-0.068,1.122,1.534,1.889,3.724C321.001,378.143,321.222,380.021,321.087,380.043z"/>
			</g>
			<g>
				<path style="fill:#FAFAFA;" d="M339.027,386.222c-0.058,0.132-2.305-0.738-5.016-1.942c-2.713-1.204-4.864-2.286-4.805-2.418
					c0.058-0.131,2.304,0.738,5.017,1.942C336.933,385.008,339.085,386.091,339.027,386.222z"/>
			</g>
			<g>
				<path style="fill:#FAFAFA;" d="M307.756,384.409c-0.137-0.045,0.285-1.683,0.94-3.658c0.656-1.975,1.298-3.54,1.435-3.494
					c0.136,0.045-0.285,1.683-0.941,3.659C308.535,382.89,307.892,384.454,307.756,384.409z"/>
			</g>
			<g>
				<path style="fill:#FAFAFA;" d="M328.359,387.896c-0.028,0.152-2.872-0.309-6.408-0.49c-3.536-0.195-6.412-0.039-6.424-0.193
					c-0.016-0.132,2.873-0.524,6.452-0.327C325.557,387.07,328.388,387.766,328.359,387.896z"/>
			</g>
			<g>
				<path style="fill:#263238;" d="M332.641,358.408c-0.017,0-0.025-0.134-0.026-0.394c-0.007-0.259,0.019-0.649,0.161-1.135
					c0.13-0.479,0.443-1.09,1.087-1.488c0.633-0.411,1.508-0.552,2.441-0.403l-0.204,0.119c1.096-3.835,2.844-9.438,4.594-15.717
					c1.639-5.877,2.743-11.292,3.52-15.216c0.374-1.899,0.682-3.467,0.915-4.65c0.221-1.097,0.36-1.702,0.396-1.695
					c0.035,0.006-0.036,0.622-0.196,1.73c-0.158,1.109-0.413,2.709-0.753,4.682c-0.684,3.944-1.736,9.391-3.38,15.287
					c-1.755,6.296-3.566,11.876-4.763,15.68l-0.047,0.149l-0.158-0.029c-0.827-0.154-1.656-0.05-2.223,0.297
					c-0.586,0.331-0.899,0.866-1.049,1.315C332.65,357.853,332.706,358.416,332.641,358.408z"/>
			</g>
			<g>
				<path style="fill:#263238;" d="M355.064,372.316c-0.086,0.04-0.701-1.315-1.972-3.333c-1.265-2.018-3.273-4.657-5.96-7.107
					c-2.696-2.442-5.514-4.189-7.644-5.256c-2.13-1.073-3.537-1.556-3.505-1.645c0.012-0.034,0.371,0.062,1.013,0.265
					c0.645,0.194,1.556,0.548,2.653,1.049c2.195,0.993,5.095,2.72,7.834,5.202c2.731,2.49,4.726,5.211,5.924,7.302
					c0.602,1.044,1.042,1.917,1.297,2.541C354.967,371.953,355.097,372.302,355.064,372.316z"/>
			</g>
			<g style="opacity:0.2;">
				<path d="M336.545,354.238c3.824,0.275,6.956,0.563,10.546,1.908c3.59,1.346,6.908,3.921,8.228,7.52
					c0.316,0.863,0.466,1.952-0.187,2.598c-0.48,0.474-1.259,0.53-1.895,0.305c-0.636-0.225-1.16-0.68-1.656-1.138
					c-2.205-2.039-4.489-3.841-6.766-5.8c-2.276-1.959-5.582-4.02-8.551-4.474"/>
			</g>
			<g>
				<path style="fill:#263238;" d="M329.336,347.859c0.014,0.027-0.348,0.259-1.043,0.604c-0.694,0.346-1.738,0.778-3.076,1.16
					c-2.656,0.776-6.626,1.2-10.778,0.122c-4.153-1.079-7.416-3.382-9.358-5.352c-0.984-0.985-1.685-1.87-2.123-2.51
					c-0.44-0.64-0.643-1.018-0.617-1.035c0.083-0.062,0.994,1.406,2.996,3.28c1.975,1.869,5.189,4.062,9.234,5.113
					c4.044,1.049,7.918,0.697,10.553,0.025C327.784,348.604,329.294,347.764,329.336,347.859z"/>
			</g>
			<g style="opacity:0.2;">
				<path d="M302.883,341.621c1.683,3.662,3.661,7.346,6.854,9.805c1.84,1.418,3.993,2.609,6.316,2.648
					c3.338,0.055,6.205-2.223,8.752-4.38C316.554,350.985,307.254,347.242,302.883,341.621"/>
			</g>
			<g>
				<path style="fill:#263238;" d="M339.855,292.616c-0.159-0.009,0.033-3.435-0.379-7.624c-0.391-4.193-1.229-7.519-1.075-7.558
					c0.065-0.017,0.357,0.794,0.693,2.145c0.337,1.35,0.696,3.246,0.9,5.363c0.201,2.117,0.209,4.046,0.134,5.436
					C340.055,291.769,339.922,292.621,339.855,292.616z"/>
			</g>
		</g>
		<g>
			<path style="fill:#E8505B;" d="M221.237,426.44c0,0-10.868,2.349-20.571,0.894c-9.097-1.364-29.466,0.047-29.459,12.037
				c0.008,13.373,27.169,10.068,37.767,7.949c10.598-2.12,21.15-4.04,21.15-4.04L221.237,426.44z"/>
			<g>
				<path style="fill:#263238;" d="M196.844,443.571c-0.14,0.031-0.728-2.052-1.313-4.654c-0.585-2.602-0.945-4.737-0.805-4.768
					c0.14-0.031,0.728,2.052,1.313,4.654C196.624,441.405,196.984,443.539,196.844,443.571z"/>
			</g>
			<g>
				<path style="fill:#263238;" d="M200.551,443.747c-0.143,0.02-0.553-2.117-0.917-4.772c-0.364-2.656-0.544-4.823-0.402-4.843
					c0.142-0.02,0.553,2.117,0.917,4.772C200.514,441.56,200.693,443.728,200.551,443.747z"/>
			</g>
			<g>
				<path style="fill:#263238;" d="M204.131,442.349c-0.143,0.017-0.486-1.85-0.765-4.169c-0.28-2.32-0.391-4.215-0.248-4.232
					c0.143-0.017,0.485,1.849,0.765,4.17C204.162,440.437,204.273,442.332,204.131,442.349z"/>
			</g>
			<g>
				<path style="fill:#263238;" d="M209.753,440.947c-0.126,0.055-0.898-1.505-1.398-3.58c-0.508-2.074-0.536-3.814-0.399-3.823
					c0.15-0.014,0.408,1.67,0.906,3.7C209.35,439.276,209.892,440.891,209.753,440.947z"/>
			</g>
			<g>
				<path style="fill:#263238;" d="M210.958,436.059c-0.002-0.03,0.501-0.115,1.42-0.094c0.915,0.026,2.26,0.174,3.816,0.746
					c0.392,0.147,0.799,0.336,1.175,0.633c0.371,0.286,0.721,0.753,0.736,1.325c0.012,1.183-1.287,2.036-2.461,1.788
					c-1.187-0.226-2.09-1.096-2.837-2.02c-0.757-0.946-1.302-2.101-1.605-3.343c-0.596-2.495-0.153-5.075,1.196-6.925
					c0.197-0.222,0.467-0.435,0.807-0.485c0.329-0.056,0.686,0.072,0.904,0.282c0.445,0.423,0.601,0.957,0.681,1.459
					c0.126,0.981,0.057,1.91-0.144,2.719c-0.391,1.633-1.206,2.764-1.834,3.43c-0.32,0.333-0.596,0.563-0.793,0.703
					c-0.199,0.139-0.307,0.204-0.318,0.19c-0.03-0.037,0.379-0.341,0.96-1.028c0.565-0.688,1.299-1.809,1.626-3.376
					c0.169-0.776,0.212-1.657,0.076-2.575c-0.069-0.431-0.243-0.9-0.555-1.178c-0.308-0.283-0.748-0.204-1.049,0.176
					c-1.174,1.652-1.629,4.149-1.05,6.486c0.286,1.172,0.797,2.261,1.501,3.151c0.694,0.879,1.549,1.676,2.52,1.862
					c0.929,0.229,1.963-0.496,1.944-1.306c-0.002-0.403-0.242-0.765-0.559-1.024c-0.316-0.264-0.688-0.452-1.053-0.6
					c-1.493-0.598-2.799-0.801-3.696-0.887C211.465,436.084,210.959,436.1,210.958,436.059z"/>
			</g>
			<g>
				<path style="fill:#263238;" d="M229.049,441.51c0.002,0.009-0.091,0.038-0.274,0.087c-0.212,0.053-0.48,0.12-0.815,0.203
					c-0.756,0.172-1.81,0.412-3.151,0.718c-2.742,0.603-6.718,1.449-11.658,2.403c-4.941,0.946-10.842,2.031-17.459,2.932
					c-3.299,0.443-6.832,0.845-10.489,0.523c-1.826-0.134-3.684-0.448-5.495-1.051c-0.896-0.323-1.797-0.673-2.637-1.171
					c-0.841-0.498-1.651-1.042-2.316-1.866l0.04,0.045c-0.336-0.325-0.687-0.697-0.945-1.134c-1.11-1.776-1.146-3.98-0.553-5.852
					c0.609-1.912,1.971-3.436,3.485-4.555c1.534-1.118,3.24-1.896,4.952-2.454c0.867-0.246,1.711-0.544,2.57-0.738
					c0.863-0.172,1.707-0.401,2.558-0.519c6.811-1.076,13.007-0.529,18.155-0.527c2.581,0.048,4.912-0.022,6.955-0.147
					c2.04-0.154,3.79-0.386,5.204-0.658c0.7-0.147,1.325-0.278,1.874-0.394c0.524-0.149,0.973-0.277,1.35-0.385
					c0.343-0.095,0.618-0.17,0.834-0.23c0.189-0.049,0.287-0.07,0.29-0.062c0.003,0.009-0.089,0.046-0.273,0.112
					c-0.212,0.072-0.482,0.164-0.82,0.28c-0.374,0.121-0.821,0.266-1.342,0.434c-0.549,0.13-1.174,0.277-1.873,0.443
					c-1.416,0.305-3.172,0.567-5.222,0.75c-2.051,0.154-4.394,0.249-6.98,0.225c-5.159,0.043-11.35-0.459-18.072,0.632
					c-0.841,0.119-1.67,0.349-2.521,0.521c-0.846,0.194-1.674,0.49-2.526,0.734c-1.679,0.552-3.337,1.317-4.809,2.394
					c-1.454,1.078-2.732,2.527-3.295,4.303c-0.556,1.752-0.508,3.814,0.5,5.416c0.233,0.397,0.551,0.73,0.852,1.024l0.017,0.017
					l0.023,0.029c0.551,0.684,1.355,1.252,2.148,1.714c0.802,0.478,1.674,0.817,2.542,1.132c1.757,0.588,3.577,0.9,5.372,1.034
					c3.6,0.324,7.085-0.059,10.385-0.489c6.604-0.872,12.508-1.918,17.454-2.818c4.946-0.908,8.931-1.699,11.685-2.241
					c1.349-0.265,2.409-0.474,3.17-0.623c0.339-0.063,0.611-0.113,0.826-0.153C228.951,441.514,229.047,441.502,229.049,441.51z"/>
			</g>
			<g>
				<path style="fill:#263238;" d="M189.306,447.949c-0.077,0.001-0.139-1.064-0.263-2.778c-0.123-1.714-0.327-4.078-0.674-6.674
					c-0.349-2.596-0.774-4.931-1.106-6.617c-0.332-1.686-0.551-2.729-0.477-2.749c0.065-0.017,0.411,0.994,0.836,2.668
					c0.426,1.673,0.912,4.014,1.263,6.628c0.349,2.614,0.496,5,0.525,6.726C189.441,446.882,189.374,447.949,189.306,447.949z"/>
			</g>
			<polygon style="opacity:0.4;" points="217.892,427.019 224.779,444.269 230.124,443.279 219.888,426.44 			"/>
		</g>
		<path style="fill:#263238;" d="M307.651,379.736c-1.107,0.369-72.282-19.575-101.065-27.669
			c-7.56-2.126-15.666-0.899-22.259,3.368l-0.347,0.224c-9.677,6.264-14.387,17.924-11.774,29.152v0
			c1.659,7.129,6.101,13.291,12.342,17.115c18.981,11.629,59.151,36.092,60.379,35.616c1.61-0.624,51.776-1.925,51.776-1.925
			l-60.352-43.404l28.712,18.556L307.651,379.736L307.651,379.736z"/>
		<path style="fill:#FFBE9D;" d="M248.229,358.077l15.13-7.827l14.837,9.301l55.548,1.815l8.04,27.043l-80.399-18.638
			c0,0-14.634,1.294-15.73-1.995C244.559,364.488,248.229,358.077,248.229,358.077z"/>
		<path style="fill:#263238;" d="M293.738,401.415l-7.478,24.557l0.93,7.484l0,0c13.625,13.734,35.336,15.198,50.681,3.416h0
			c9.328-7.162,14.775-18.272,14.723-30.033l-0.113-25.659L293.738,401.415z"/>
		<g>
			<path style="fill:#455A64;" d="M249.204,401.575c-0.086,0.115-8.767-6.214-19.387-14.135
				c-10.624-7.924-19.164-14.439-19.078-14.554c0.086-0.115,8.765,6.213,19.389,14.136
				C240.749,394.944,249.29,401.46,249.204,401.575z"/>
		</g>
		<g>
			<path style="fill:#EB996E;" d="M262.339,355.153c0.044,0.137-3.27,1.321-7.4,2.645c-4.132,1.324-7.516,2.286-7.56,2.149
				c-0.044-0.137,3.269-1.321,7.401-2.645C258.91,355.978,262.295,355.016,262.339,355.153z"/>
		</g>
		<g>
			<path style="fill:#EB996E;" d="M263.47,359.764c0.007,0.076-0.984,0.224-2.577,0.484c-1.593,0.259-3.787,0.651-6.184,1.201
				c-2.398,0.553-4.542,1.158-6.089,1.621c-1.547,0.462-2.503,0.761-2.529,0.689c-0.024-0.063,0.888-0.485,2.414-1.039
				c1.525-0.555,3.671-1.222,6.087-1.779c2.416-0.554,4.638-0.891,6.252-1.058C262.459,359.716,263.464,359.697,263.47,359.764z"/>
		</g>
		<g>
			<path style="fill:#EB996E;" d="M262.203,363.995c0.028,0.141-3.704,1-8.335,1.918c-4.633,0.919-8.41,1.549-8.438,1.407
				c-0.028-0.141,3.704-1,8.336-1.918C258.397,364.484,262.175,363.854,262.203,363.995z"/>
		</g>
		<g>
			<path style="fill:#455A64;" d="M242.575,321.798l13.956,45.921c0.16,0.525,0.626,0.899,1.173,0.94l38.031,2.854
				c0.694,0.052,1.231,0.63,1.231,1.326v2.374c0,0.744-0.611,1.344-1.355,1.33l-103.961-1.954c-0.542-0.01-1.024-0.349-1.218-0.856
				l-18.283-47.899c-0.323-0.846,0.276-1.761,1.18-1.803l67.911-3.177C241.848,320.827,242.398,321.215,242.575,321.798z"/>
			<path style="fill:#E0E0E0;" d="M213.28,341.584c-0.739,0.194-1.912,1.238-2.056,2.335c-0.145,1.097,0.445,2.215,1.343,2.861
				c1.095,0.788,2.68,0.894,3.801,0.142c1.12-0.752,1.616-2.239,1.037-3.837C216.945,341.817,214.624,340.93,213.28,341.584"/>
		</g>
		<g>
			<path style="fill:#263238;" d="M230.124,443.279l-10.988-18.077l80.802-63.328c5.026-4.123,11.174-6.643,17.648-7.233h0
				c20.099-1.831,36.981,14.926,35.301,35.038l-1.291,15.45l-53.635,17.235L230.124,443.279z"/>
			<g>
				<path style="fill:#455A64;" d="M333.744,400.359c0.006,0.007-0.067,0.074-0.214,0.199c-0.171,0.141-0.389,0.32-0.66,0.544
					c-0.618,0.493-1.479,1.18-2.573,2.054c-0.564,0.445-1.188,0.938-1.868,1.475c-0.682,0.541-1.485,1.042-2.315,1.628
					c-0.839,0.576-1.735,1.19-2.684,1.84c-0.477,0.323-0.96,0.667-1.471,0.997c-0.521,0.314-1.056,0.636-1.604,0.965
					c-2.196,1.311-4.566,2.812-7.252,4.169c-1.332,0.697-2.691,1.457-4.127,2.167c-1.448,0.686-2.938,1.393-4.465,2.117
					c-6.152,2.804-13.041,5.624-20.427,8.136c-14.758,5.086-28.404,8.747-38.176,11.71c-2.45,0.721-4.659,1.395-6.593,2.007
					c-1.938,0.598-3.607,1.115-4.959,1.574c-1.331,0.432-2.377,0.772-3.128,1.016c-0.336,0.103-0.606,0.186-0.818,0.252
					c-0.185,0.054-0.282,0.078-0.285,0.069c-0.003-0.008,0.087-0.049,0.267-0.119c0.208-0.078,0.472-0.177,0.801-0.301
					c0.743-0.266,1.78-0.637,3.098-1.109c1.343-0.49,3.004-1.034,4.935-1.66c1.927-0.639,4.13-1.339,6.574-2.082
					c9.752-3.055,23.379-6.772,38.112-11.849c7.374-2.508,14.251-5.308,20.398-8.08c1.526-0.715,3.015-1.413,4.463-2.091
					c1.435-0.701,2.794-1.451,4.127-2.137c2.688-1.337,5.06-2.815,7.263-4.102c0.549-0.323,1.086-0.639,1.609-0.947
					c0.513-0.324,0.997-0.662,1.477-0.978c0.954-0.637,1.855-1.239,2.7-1.802c0.836-0.573,1.646-1.061,2.335-1.589
					c0.689-0.523,1.32-1.002,1.892-1.436c1.119-0.84,1.999-1.5,2.63-1.974c0.285-0.207,0.513-0.373,0.693-0.504
					C333.654,400.406,333.738,400.352,333.744,400.359z"/>
			</g>
			<g>
				<path style="fill:#455A64;" d="M335.704,408.811c0.013,0.033-0.277,0.184-0.815,0.427c-0.537,0.247-1.328,0.568-2.318,0.936
					c-1.978,0.738-4.77,1.612-7.924,2.292c-3.155,0.676-6.061,1.026-8.167,1.166c-1.053,0.071-1.907,0.103-2.498,0.099
					c-0.59-0.001-0.917-0.018-0.918-0.054c-0.003-0.08,1.296-0.177,3.383-0.411c2.087-0.233,4.96-0.638,8.091-1.308
					c3.129-0.675,5.915-1.486,7.913-2.131C334.45,409.182,335.674,408.737,335.704,408.811z"/>
			</g>
			<g>
				<path style="fill:#455A64;" d="M296.704,364.913c0.088,0.114-17.206,13.703-38.622,30.349
					c-21.424,16.652-38.857,30.054-38.946,29.94c-0.088-0.114,17.202-13.7,38.626-30.352
					C279.179,378.204,296.616,364.799,296.704,364.913z"/>
			</g>
			<g>
				<g>
					<path style="fill:#E8505B;" d="M292.034,432.113c-3.876-2.067-8.227-0.845-11.935,0.405c-2.468,0.832-5.033,2.149-7.54,1.444
						c-1.813-0.51-3.161-1.979-4.546-3.257c-5.584-5.151-13.285-7.96-20.886-7.484c-2.159,0.135-4.269,1.004-5.736,2.593
						c-3.807,4.123-0.935,9.489,2.466,12.956c6.006,6.121,14.184,10.066,22.713,10.957c7.089,0.74,16.837-0.239,24.027-3.318
						c4.432-1.898,6.707-7.127,4.381-11.35C294.299,433.83,293.309,432.793,292.034,432.113z"/>
					<g style="opacity:0.4;">
						<path d="M292.026,435.413c-3.876-2.067-8.227-0.845-11.936,0.405c-2.468,0.832-5.033,2.149-7.54,1.444
							c-1.813-0.51-3.161-1.979-4.546-3.257c-5.585-5.151-13.285-7.96-20.887-7.484c-2.159,0.135-4.269,1.004-5.736,2.593
							c-0.843,0.913-1.343,1.889-1.598,2.89c0.564,2.479,2.232,4.898,4.064,6.766c6.006,6.121,14.184,10.066,22.713,10.957
							c7.089,0.74,16.837-0.24,24.026-3.318c2.665-1.141,4.539-3.488,5.114-6.094c-0.15-0.665-0.384-1.322-0.733-1.956
							C294.29,437.129,293.3,436.093,292.026,435.413z"/>
					</g>
				</g>
				<g>
					<path style="fill:#263238;" d="M295.701,440.316c-0.071,0.024-0.052-0.947-0.95-2.296c-0.451-0.659-1.121-1.401-2.074-2.028
						c-0.938-0.634-2.153-1.183-3.563-1.364c-2.878-0.338-6.212,0.873-9.917,1.876c-1.831,0.485-3.831,1.226-6.02,0.952
						c-1.07-0.139-2.142-0.494-3.097-1.072c-0.953-0.571-1.818-1.276-2.662-2.004c-3.192-3.116-6.979-5.067-10.599-6.298
						c-1.811-0.608-3.59-1.008-5.274-1.224c-1.685-0.222-3.271-0.25-4.691-0.028c-1.418,0.221-2.65,0.687-3.628,1.266
						c-0.975,0.591-1.699,1.274-2.223,1.884c-1.028,1.246-1.376,2.098-1.431,2.066c0,0,0.274-0.882,1.275-2.195
						c0.511-0.643,1.234-1.369,2.227-2.004c0.996-0.623,2.263-1.13,3.721-1.381c1.458-0.253,3.092-0.245,4.803-0.038
						c1.715,0.201,3.528,0.592,5.372,1.197c1.846,0.601,3.721,1.422,5.564,2.456c0.911,0.53,1.84,1.081,2.708,1.763
						c0.863,0.676,1.679,1.418,2.516,2.141c0.836,0.723,1.681,1.409,2.586,1.953c0.899,0.547,1.889,0.875,2.897,1.012
						c2.028,0.268,3.973-0.425,5.83-0.909c3.687-0.965,7.08-2.173,10.088-1.778c2.986,0.476,4.909,2.269,5.761,3.647
						c0.437,0.705,0.631,1.327,0.717,1.751C295.711,440.088,295.714,440.316,295.701,440.316z"/>
				</g>
				<g>
					<path style="fill:#263238;" d="M295.701,440.316c-0.071,0.024-0.052-0.947-0.95-2.296c-0.451-0.659-1.121-1.401-2.074-2.028
						c-0.938-0.634-2.153-1.183-3.563-1.364c-2.878-0.338-6.212,0.873-9.917,1.876c-1.831,0.485-3.831,1.226-6.02,0.952
						c-1.07-0.139-2.142-0.494-3.097-1.072c-0.953-0.571-1.818-1.276-2.662-2.004c-3.192-3.116-6.979-5.067-10.599-6.298
						c-1.811-0.608-3.59-1.008-5.274-1.224c-1.685-0.222-3.271-0.25-4.691-0.028c-1.418,0.221-2.65,0.687-3.628,1.266
						c-0.975,0.591-1.699,1.274-2.223,1.884c-1.028,1.246-1.376,2.098-1.431,2.066c0,0,0.274-0.882,1.275-2.195
						c0.511-0.643,1.234-1.369,2.227-2.004c0.996-0.623,2.263-1.13,3.721-1.381c1.458-0.253,3.092-0.245,4.803-0.038
						c1.715,0.201,3.528,0.592,5.372,1.197c1.846,0.601,3.721,1.422,5.564,2.456c0.911,0.53,1.84,1.081,2.708,1.763
						c0.863,0.676,1.679,1.418,2.516,2.141c0.836,0.723,1.681,1.409,2.586,1.953c0.899,0.547,1.889,0.875,2.897,1.012
						c2.028,0.268,3.973-0.425,5.83-0.909c3.687-0.965,7.08-2.173,10.088-1.778c2.986,0.476,4.909,2.269,5.761,3.647
						c0.437,0.705,0.631,1.327,0.717,1.751C295.711,440.088,295.714,440.316,295.701,440.316z"/>
				</g>
				<g>
					<path style="fill:#263238;" d="M247.631,439.383c-0.036-0.058,0.712-0.6,1.985-1.375c1.272-0.776,3.076-1.773,5.135-2.741
						c2.06-0.967,3.979-1.721,5.388-2.206c1.409-0.485,2.303-0.716,2.325-0.651c0.025,0.071-0.825,0.424-2.193,0.995
						c-1.369,0.57-3.252,1.372-5.297,2.333c-2.044,0.962-3.863,1.9-5.175,2.59C248.485,439.018,247.671,439.448,247.631,439.383z"/>
				</g>
				<g>
					<path style="fill:#263238;" d="M248.963,443.26c-0.063-0.129,3.327-1.898,7.57-3.949c4.244-2.052,7.735-3.61,7.797-3.48
						c0.063,0.129-3.326,1.897-7.57,3.949C252.516,441.831,249.025,443.389,248.963,443.26z"/>
				</g>
				<g>
					<path style="fill:#263238;" d="M265.02,444.941c-0.077,0.122-4.207-2.343-9.224-5.504c-5.019-3.162-9.024-5.823-8.947-5.945
						c0.077-0.122,4.206,2.342,9.225,5.504C261.091,442.158,265.096,444.819,265.02,444.941z"/>
				</g>
				<g>
					<path style="fill:#263238;" d="M267.344,440.919c-0.047,0.058-0.807-0.476-2.022-1.352c-1.215-0.876-2.891-2.086-4.767-3.387
						c-1.877-1.301-3.599-2.445-4.845-3.276c-1.246-0.831-2.013-1.355-1.975-1.419c0.035-0.06,0.869,0.353,2.17,1.107
						c1.3,0.753,3.062,1.854,4.947,3.161c1.884,1.307,3.533,2.57,4.695,3.523C266.708,440.229,267.388,440.865,267.344,440.919z"/>
				</g>
			</g>
		</g>
	</g>
</g>
</svg>
